<?xml version="1.0" standalone="no"?>
 <!DOCTYPE svg PUBLIC "-//W3C//DTD SVG 1.1//EN" 
 "http://www.w3.org/Graphics/SVG/1.1/DTD/svg11.dtd"> 
<svg
  xmlns:svg="http://www.w3.org/2000/svg"
  xmlns="http://www.w3.org/2000/svg"
  xmlns:xlink="http://www.w3.org/1999/xlink"
  xmlns:inkscape="http://www.inkscape.org/namespaces/inkscape"
  version="1.1"
  width="297.002200mm" height="210.007200mm" viewBox="0.000000 0.000000 297.002200 210.007200">
<title>SVG Image created as Alpenglow_FUterus_PCB-User_1.svg date 2026-03-22T10:56:18 </title>
  <desc>Image generated by PCBNEW </desc>
<g style="fill:#000000; fill-opacity:1.000000;stroke:#000000; stroke-opacity:1.000000;
stroke-linecap:round; stroke-linejoin:round;"
 transform="translate(0 0) scale(1 1)">
<path style="fill:#000000; fill-opacity:1.000000; stroke:none;fill-rule:evenodd;"
d="M 238.195542,97.666081
238.350856,97.768583
238.499949,97.952618
238.567488,98.172149
238.554648,98.408602
238.462606,98.643404
238.292537,98.857978
238.281235,98.868555
237.986109,99.095590
237.680533,99.248057
237.526033,99.293243
237.420700,99.325978
237.376526,99.379318
237.389278,99.474882
237.454725,99.634290
237.457904,99.641262
237.540473,99.793427
237.651654,99.939703
237.806228,100.095373
238.018973,100.275719
238.230216,100.439871
238.630291,100.770296
238.938459,101.085890
239.159575,101.391939
239.234353,101.533015
239.295883,101.675464
239.334932,101.805194
239.356434,101.952093
239.365325,102.146044
239.366687,102.334452
239.363356,102.586501
239.350042,102.772036
239.321581,102.923257
239.272810,103.072365
239.232277,103.172722
239.097971,103.492120
239.220305,103.700866
239.432260,103.969574
239.719065,104.195140
240.064040,104.371710
240.450504,104.493427
240.861778,104.554437
241.281182,104.548883
241.528942,104.511339
241.813270,104.452271
241.528942,104.236606
241.240370,103.987785
241.026322,103.728140
240.864074,103.429222
240.841399,103.375840
240.747108,103.058354
240.744672,102.940474
241.182888,102.940474
241.244088,103.160379
241.379327,103.404425
241.573427,103.646515
241.711411,103.778223
241.875859,103.909035
242.044295,104.024119
242.194244,104.108641
242.303228,104.147768
242.331772,104.146980
242.384480,104.100650
242.469329,103.996397
242.541792,103.894805
242.671888,103.630723
242.703396,103.370418
242.636552,103.116344
242.471593,102.870952
242.439928,102.836639
242.180610,102.625235
241.896033,102.508710
241.664374,102.482701
241.436469,102.515823
241.279783,102.609174
241.195021,102.753732
241.182888,102.940474
240.744672,102.940474
240.741144,102.769787
240.819901,102.502521
240.951776,102.291301
241.130895,102.150195
241.371998,102.070473
241.590309,102.046275
241.967683,102.070586
242.311361,102.175571
242.610362,102.351492
242.853706,102.588607
243.030413,102.877177
243.129502,103.207460
243.147142,103.427296
243.117242,103.726368
243.033411,103.988360
242.915225,104.173402
242.865021,104.238934
242.895963,104.259515
242.954172,104.260604
243.145276,104.218961
243.393676,104.097078
243.699138,103.895080
243.838971,103.790553
244.281270,103.490653
244.710601,103.282765
245.136036,103.162559
245.165210,103.157433
245.386420,103.108681
245.547710,103.040858
245.684568,102.940726
245.824940,102.827912
245.962023,102.733829
246.003794,102.709985
246.193839,102.633343
246.439146,102.563248
246.696217,102.509977
246.921552,102.483807
246.965748,102.482701
247.187403,102.482701
247.208327,102.198557
247.274154,101.858177
247.412041,101.535332
247.608367,101.248549
247.849509,101.016358
248.121842,100.857286
248.219729,100.822973
248.473494,100.772248
248.745394,100.770432
248.822315,100.777063
249.007715,100.791510
249.128063,100.785458
249.215942,100.753750
249.288900,100.703204
249.375028,100.617966
249.462376,100.505759
249.532517,100.394536
249.567023,100.312249
249.562556,100.288102
249.339325,100.121457
249.118466,99.936194
248.924962,99.754710
248.783798,99.599399
248.761608,99.570081
248.608342,99.331135
248.519052,99.118335
248.480702,98.895883
248.476620,98.787521
248.480780,98.757313
248.928623,98.757313
248.952451,98.929000
249.023009,99.113221
249.092389,99.218130
249.202077,99.352123
249.332125,99.494468
249.462582,99.624426
249.573498,99.721265
249.644923,99.764248
249.649914,99.764802
249.663308,99.719784
249.666819,99.601460
249.659765,99.434930
249.659130,99.425894
249.614287,99.151042
249.527649,98.911528
249.409254,98.721141
249.269137,98.593672
249.117335,98.542912
249.025217,98.554886
248.952909,98.624718
248.928623,98.757313
248.480780,98.757313
248.513957,98.516365
248.622655,98.305850
248.790790,98.163401
249.006441,98.096443
249.257686,98.112400
249.453462,98.179186
249.702104,98.345167
249.893696,98.589743
250.026808,98.909811
250.100012,99.302271
250.114846,99.614495
250.114846,100.105541
250.522531,100.324892
250.924431,100.520790
251.289245,100.652766
251.637691,100.729919
251.795991,100.771628
251.884749,100.844643
251.904392,100.880106
251.928615,101.007535
251.873262,101.094343
251.748549,101.141200
251.564691,101.148779
251.331906,101.117753
251.060409,101.048794
250.760416,100.942573
250.442143,100.799762
250.405800,100.781516
249.980217,100.565479
249.800432,100.806293
249.650849,100.986220
249.504231,101.105796
249.335142,101.175830
249.118148,101.207128
248.848181,101.210895
248.627713,101.209399
248.476258,101.218348
248.364101,101.243615
248.261528,101.291072
248.173988,101.344141
248.022902,101.460331
247.904163,101.607633
247.799924,101.798789
247.719332,101.990180
247.659174,102.178381
247.634317,102.308553
247.619876,102.505027
247.931186,102.586425
248.275343,102.691047
248.567977,102.817702
248.856400,102.988109
248.960927,103.059187
249.287283,103.334916
249.534082,103.647151
249.695403,103.985846
249.765327,104.340954
249.767847,104.428506
249.726324,104.745266
249.606585,105.003764
249.411442,105.200140
249.143706,105.330533
249.101811,105.342965
248.982828,105.375852
248.904843,105.389393
248.828939,105.382586
248.716199,105.354430
248.629331,105.330814
248.351304,105.217720
248.103094,105.031975
247.874066,104.764038
247.709878,104.505838
247.603234,104.291329
247.489574,104.016554
247.382167,103.717972
247.294283,103.432045
247.245623,103.230206
247.197506,102.984184
247.670537,102.984184
247.672026,103.042638
247.702141,103.171524
247.753804,103.349118
247.819938,103.553693
247.893466,103.763523
247.967309,103.956883
248.034392,104.112046
248.045147,104.134131
248.197583,104.407348
248.354077,104.612094
248.537839,104.776855
248.611927,104.829691
248.757597,104.918218
248.867706,104.948011
248.981580,104.924838
249.053776,104.894481
249.196663,104.779436
249.292593,104.601613
249.324185,104.410750
249.283176,104.205683
249.170779,103.974727
249.002937,103.738263
248.795595,103.516672
248.564696,103.330334
248.404647,103.235306
248.264286,103.171786
248.096543,103.105733
247.927551,103.046087
247.783445,103.001786
247.690362,102.981773
247.670537,102.984184
247.197506,102.984184
247.184026,102.915260
246.858094,102.938658
246.574799,102.982373
246.333155,103.064086
246.311825,103.074561
246.091488,103.187066
246.340273,103.279871
246.592516,103.405541
246.822240,103.577142
247.000454,103.770630
247.069337,103.884550
247.117245,104.039256
247.145830,104.238156
247.149866,104.337430
247.144667,104.501990
247.117458,104.613882
247.050818,104.713973
246.939464,104.831010
246.699452,105.015211
246.423535,105.136443
246.130314,105.195226
245.838392,105.192080
245.566370,105.127524
245.332849,105.002078
245.156432,104.816263
245.134516,104.780561
245.074537,104.660069
245.043379,104.541482
245.035301,104.389510
245.038392,104.308133
245.472221,104.308133
245.529125,104.506167
245.652787,104.654482
245.837655,104.740041
245.981564,104.755853
246.154513,104.743846
246.310375,104.713950
246.343633,104.703145
246.551526,104.588178
246.669098,104.438298
246.694096,104.259257
246.624267,104.056803
246.607883,104.028697
246.486046,103.895677
246.301910,103.768497
246.091003,103.667045
245.888856,103.611211
245.855437,103.607484
245.752762,103.608621
245.683123,103.647018
245.617528,103.744596
245.580897,103.815059
245.487627,104.073418
245.472221,104.308133
245.038392,104.308133
245.042034,104.212273
245.056999,104.015094
245.076887,103.844479
245.097579,103.735222
245.099051,103.730464
245.109936,103.642105
245.067789,103.619760
244.946257,103.649272
244.767485,103.729185
244.551609,103.848416
244.318767,103.995880
244.098583,104.153250
243.834239,104.349408
243.622352,104.490394
243.440461,104.585492
243.266101,104.643986
243.076811,104.675163
242.850128,104.688308
242.801228,104.689528
242.528745,104.702516
242.312481,104.732768
242.110315,104.787673
241.985858,104.832597
241.641940,104.930268
241.246558,104.986895
240.839527,104.999326
240.460666,104.964409
240.418110,104.956719
240.019561,104.844036
239.632863,104.668107
239.287422,104.444707
239.034882,104.214746
238.766889,103.918604
238.554782,104.134725
238.251787,104.384413
237.916429,104.556643
237.565079,104.646220
237.214105,104.647945
237.044224,104.614335
236.771740,104.491993
236.544949,104.296043
236.374200,104.045172
236.269841,103.758068
236.247129,103.507577
236.680304,103.507577
236.698228,103.618425
236.754116,103.769087
236.888484,103.985014
237.081676,104.131275
237.317874,104.202982
237.581257,104.195245
237.847975,104.107104
237.985877,104.023590
238.142731,103.903563
238.298095,103.766183
238.431526,103.630611
238.522581,103.516005
238.551422,103.447808
238.516553,103.349340
238.426868,103.215451
238.304746,103.072432
238.172570,102.946573
238.055923,102.865755
237.803809,102.786944
237.532272,102.781715
237.265416,102.842905
237.027348,102.963348
236.842175,103.135882
236.773257,103.246954
236.704766,103.398688
236.680304,103.507577
236.247129,103.507577
236.242219,103.453418
236.276971,103.228772
236.377019,103.011415
236.547538,102.794344
236.763187,102.602092
236.998624,102.459190
237.120010,102.412661
237.504422,102.339582
237.873001,102.348439
238.210843,102.436267
238.503043,102.600106
238.630618,102.712931
238.745039,102.823154
238.825052,102.873570
238.876708,102.856322
238.906058,102.763552
238.919152,102.587402
238.922045,102.334452
238.917927,102.113291
238.900655,101.955554
238.862850,101.825998
238.797133,101.689385
238.780694,101.659384
238.695742,101.517365
238.601888,101.389564
238.484686,101.261573
238.329689,101.118981
238.122450,100.947380
237.860883,100.741928
237.561450,100.497242
237.336492,100.280922
237.172332,100.076646
237.055290,99.868094
236.992295,99.705450
236.935313,99.554149
236.880342,99.443287
236.851626,99.407291
236.772222,99.385274
236.635208,99.371951
236.567620,99.370228
236.334989,99.346189
236.040371,99.274093
235.677162,99.151953
235.238759,98.977784
235.179485,98.952741
234.802940,98.803032
234.487755,98.704484
234.212272,98.654633
233.954831,98.651016
233.693773,98.691169
233.456350,98.756761
233.128300,98.895655
232.872973,99.077774
232.700757,99.295382
232.680935,99.334406
232.595383,99.498415
232.520872,99.584824
232.437057,99.609749
232.350156,99.596383
232.235943,99.527806
232.200000,99.400000
232.242619,99.214456
232.264886,99.160792
232.441611,98.880774
232.697752,98.641424
233.019826,98.449673
233.394349,98.312457
233.807840,98.236709
234.087033,98.223693
234.332747,98.234868
234.568709,98.269513
234.818601,98.333780
235.106102,98.433823
235.454892,98.575793
235.474701,98.584246
235.740074,98.689505
236.015553,98.784741
236.281741,98.864702
236.519243,98.924136
236.708663,98.957790
236.830606,98.960412
236.847383,98.955954
236.886131,98.897863
236.906807,98.824443
237.362391,98.824443
237.385957,98.874628
237.391725,98.875308
237.449932,98.857961
237.562671,98.814733
237.601745,98.798679
237.804290,98.688263
237.960985,98.553034
238.063778,98.408259
238.104614,98.269206
238.075442,98.151141
237.983134,98.075655
237.831496,98.047438
237.692634,98.110305
237.561727,98.267332
237.495372,98.386871
237.421992,98.557508
237.376034,98.711051
237.362391,98.824443
236.906807,98.824443
236.921018,98.773978
236.935654,98.682084
237.007537,98.362548
237.134911,98.088583
237.306103,97.867724
237.509437,97.707509
237.733238,97.615473
237.965831,97.599151
Z" /> 
</g> 
</svg>
