<?xml version="1.0" standalone="no"?>
 <!DOCTYPE svg PUBLIC "-//W3C//DTD SVG 1.1//EN" 
 "http://www.w3.org/Graphics/SVG/1.1/DTD/svg11.dtd"> 
<svg
  xmlns:svg="http://www.w3.org/2000/svg"
  xmlns="http://www.w3.org/2000/svg"
  xmlns:xlink="http://www.w3.org/1999/xlink"
  xmlns:inkscape="http://www.inkscape.org/namespaces/inkscape"
  version="1.1"
  width="297.002200mm" height="210.007200mm" viewBox="0.000000 0.000000 297.002200 210.007200">
<title>SVG Image created as Alpenglow_FUterus_PCB-User_4.svg date 2026-03-21T21:59:42 </title>
  <desc>Image generated by PCBNEW </desc>
<g style="fill:#000000; fill-opacity:1.000000;stroke:#000000; stroke-opacity:1.000000;
stroke-linecap:round; stroke-linejoin:round;"
 transform="translate(0 0) scale(1 1)">
<path style="fill:#000000; fill-opacity:1.000000; stroke:none;fill-rule:evenodd;"
d="M 90.880842,143.561198
90.863703,143.578337
90.846564,143.561198
90.863703,143.544059
Z" /> 
<path style="fill:#000000; fill-opacity:1.000000; stroke:none;fill-rule:evenodd;"
d="M 92.999757,145.793218
93.029777,145.860923
93.048730,145.929451
93.048237,145.973079
93.040596,145.977797
92.996854,145.953994
92.995701,145.952088
92.971608,145.890412
92.956533,145.819836
92.954079,145.765509
92.967051,145.752055
Z" /> 
<path style="fill:#000000; fill-opacity:1.000000; stroke:none;fill-rule:evenodd;"
d="M 90.947338,143.182131
90.948515,143.239604
90.942351,143.319777
90.930579,143.400150
90.914932,143.458224
90.914871,143.458364
90.900031,143.474389
90.898390,143.425333
90.904971,143.355530
90.918585,143.254549
90.931480,143.185911
90.937088,143.169857
Z" /> 
<path style="fill:#000000; fill-opacity:1.000000; stroke:none;fill-rule:evenodd;"
d="M 93.658254,133.558192
93.960516,133.634235
94.230983,133.763659
94.479266,133.950262
94.554370,134.021445
94.710969,134.209487
94.856066,134.443345
94.977434,134.700285
95.062842,134.957571
95.067050,134.974558
95.096875,135.161107
95.110364,135.388227
95.107877,135.629999
95.089770,135.860501
95.056404,136.053813
95.051881,136.071454
94.919008,136.447550
94.725430,136.818489
94.478602,137.171762
94.228767,137.452570
94.017279,137.665381
94.548588,137.666256
94.756925,137.667476
94.912863,137.671637
95.032553,137.680675
95.132145,137.696527
95.227788,137.721129
95.335634,137.756417
95.354121,137.762843
95.717269,137.925297
96.046752,138.145541
96.336933,138.418800
96.582177,138.740299
96.659292,138.868551
96.781802,139.107556
96.862554,139.322239
96.908391,139.536628
96.926154,139.774752
96.926746,139.807756
96.926741,139.967846
96.919307,140.080993
96.900627,140.168716
96.866886,140.252535
96.837646,140.310242
96.752273,140.442717
96.636560,140.566788
96.480068,140.691573
96.272354,140.826193
96.193932,140.872508
95.967589,141.012144
95.797452,141.137455
95.674758,141.255997
95.590745,141.375326
95.574592,141.406508
95.537364,141.494402
95.516946,141.580505
95.510420,141.687266
95.514872,141.837134
95.515948,141.858001
95.553006,142.139277
95.636823,142.421972
95.771451,142.716471
95.960938,143.033163
95.992843,143.081002
96.083827,143.220355
96.158457,143.343272
96.209120,143.436602
96.228203,143.487192
96.228210,143.487660
96.198750,143.546993
96.129400,143.589129
96.048707,143.600920
96.008371,143.588908
95.947882,143.535253
95.864352,143.434657
95.767050,143.300644
95.665244,143.146736
95.568201,142.986459
95.485190,142.833337
95.471315,142.805231
95.344894,142.500596
95.256738,142.193618
95.208711,141.896893
95.202676,141.623015
95.240496,141.384578
95.254442,141.339433
95.355741,141.143433
95.524426,140.952780
95.760901,140.767064
95.923993,140.664538
96.180271,140.503441
96.375021,140.352675
96.512765,140.204190
96.598020,140.049939
96.635306,139.881871
96.629143,139.691938
96.587060,139.483540
96.474283,139.175789
96.303578,138.878817
96.085469,138.607126
95.830483,138.375220
95.730651,138.303571
95.506205,138.170616
95.276824,138.072420
95.030946,138.006850
94.757012,137.971775
94.443462,137.965063
94.078737,137.984582
94.025263,137.989083
93.835254,138.006358
93.697546,138.022263
93.596105,138.040911
93.514896,138.066415
93.437884,138.102885
93.349034,138.154433
93.325992,138.168396
92.957410,138.363511
92.556040,138.524875
92.142759,138.645721
91.738443,138.719281
91.580759,138.734159
91.220405,138.736417
90.859230,138.693852
90.490485,138.604215
90.107424,138.465261
89.703298,138.274742
89.271361,138.030411
89.048229,137.890823
88.808075,137.737922
88.613464,137.618246
88.453591,137.525968
88.317652,137.455262
88.194844,137.400300
88.074364,137.355255
88.024838,137.338848
87.747815,137.278198
87.482032,137.279733
87.223300,137.344776
86.967427,137.474645
86.710225,137.670662
86.579291,137.794415
86.324193,138.091309
86.129717,138.411453
85.992952,138.761458
85.910989,139.147937
85.889288,139.362142
85.886116,139.653586
85.917024,139.959119
85.983924,140.285931
86.088729,140.641211
86.233353,141.032149
86.419707,141.465935
86.488960,141.616025
86.613558,141.885722
86.711077,142.106694
86.785925,142.291112
86.842510,142.451148
86.885242,142.598975
86.918528,142.746763
86.938788,142.858004
86.969046,143.227408
86.932529,143.581314
86.829186,143.919967
86.658966,144.243609
86.645741,144.263897
86.493791,144.474924
86.340077,144.653141
86.191165,144.793297
86.053627,144.890140
85.934031,144.938421
85.838945,144.932887
85.820887,144.923223
85.764205,144.850935
85.760887,144.761878
85.810090,144.685556
86.111356,144.406059
86.345333,144.122034
86.513258,143.831016
86.616366,143.530538
86.655895,143.218133
86.648583,143.012750
86.630531,142.861230
86.603948,142.718808
86.564721,142.573358
86.508734,142.412755
86.431874,142.224873
86.330026,141.997588
86.235670,141.795881
86.055598,141.403687
85.910000,141.058174
85.795890,140.748606
85.710281,140.464247
85.650185,140.194361
85.612616,139.928213
85.594586,139.655068
85.591905,139.482115
85.594707,139.255167
85.603980,139.077619
85.621554,138.930470
85.649258,138.794721
85.663352,138.740219
85.791518,138.375981
85.968287,138.036852
86.186794,137.730542
86.440177,137.464758
86.721572,137.247211
87.024116,137.085609
87.189888,137.025524
87.339682,136.986471
87.478498,136.967957
87.638551,136.966658
87.722621,136.970605
87.932219,136.994768
88.138920,137.045889
88.355822,137.129006
88.596029,137.249152
88.872641,137.411364
88.877812,137.414562
89.191772,137.608051
89.456150,137.768516
89.679006,137.900047
89.868402,138.006730
90.032396,138.092657
90.179051,138.161914
90.316425,138.218590
90.452581,138.266774
90.595577,138.310556
90.703438,138.340603
90.974146,138.392422
91.282642,138.416176
91.604326,138.412217
91.914597,138.380900
92.188855,138.322575
92.200545,138.319146
92.374083,138.262980
92.556950,138.196591
92.715250,138.132431
92.744669,138.119276
92.851289,138.070302
92.913743,138.035511
92.927993,138.007905
92.890000,137.980491
92.795726,137.946271
92.641134,137.898252
92.611881,137.889238
92.251723,137.744445
91.924921,137.546233
91.636595,137.301371
91.391867,137.016628
91.195858,136.698774
91.053689,136.354578
90.970481,135.990810
90.957820,135.807958
91.265592,135.807958
91.294601,136.083072
91.357361,136.324571
91.462346,136.557761
91.583004,136.756206
91.812026,137.040079
92.089385,137.280569
92.406317,137.472232
92.754057,137.609622
93.070162,137.680085
93.229610,137.701434
93.339830,137.708218
93.419006,137.698331
93.485324,137.669669
93.551290,137.624401
93.695085,137.506149
93.859127,137.354885
94.026065,137.188128
94.178548,137.023398
94.299226,136.878213
94.325481,136.842709
94.529251,136.518752
94.674020,136.196445
94.766533,135.858009
94.806475,135.574423
94.804595,135.259379
94.744085,134.953037
94.630322,134.665355
94.468685,134.406293
94.264549,134.185810
94.023295,134.013867
93.941020,133.971606
93.814084,133.916671
93.701466,133.882022
93.577038,133.861952
93.414670,133.850750
93.381331,133.849314
93.003989,133.866276
92.647194,133.948598
92.311661,134.096013
91.998106,134.308255
91.885477,134.405289
91.634999,134.668847
91.450567,134.942416
91.329834,135.231308
91.270451,135.540837
91.265592,135.807958
90.957820,135.807958
90.949805,135.692206
90.983133,135.326715
91.080288,134.981791
91.238602,134.661309
91.455410,134.369141
91.728044,134.109162
92.053839,133.885245
92.272788,133.770257
92.621896,133.632380
92.965145,133.554309
93.314580,133.531734
Z" /> 
<path style="fill:#000000; fill-opacity:1.000000; stroke:none;fill-rule:evenodd;"
d="M 91.990005,140.244954
92.139496,140.339060
92.216444,140.416955
92.345581,140.620421
92.444247,140.872692
92.511250,141.160588
92.545402,141.470926
92.545512,141.790525
92.510392,142.106203
92.438850,142.404779
92.404768,142.503377
92.358666,142.626582
92.320993,142.729166
92.299464,142.790103
92.298789,142.792178
92.306815,142.827479
92.359346,142.866918
92.465210,142.916194
92.532414,142.943025
92.806526,143.058057
93.034936,143.172238
93.208832,143.280954
93.269043,143.328691
93.452168,143.528893
93.613105,143.782293
93.748102,144.076061
93.853408,144.397366
93.925268,144.733375
93.959932,145.071256
93.953646,145.398179
93.928597,145.584064
93.911495,145.698026
93.910712,145.793544
93.928686,145.897868
93.967852,146.038248
93.969755,146.044543
94.011102,146.203402
94.036011,146.362889
94.047771,146.549119
94.049868,146.680496
94.044044,146.894873
94.021256,147.085584
93.976610,147.261708
93.905214,147.432329
93.802173,147.606527
93.662594,147.793386
93.481584,148.001985
93.254250,148.241407
93.154081,148.342979
92.937351,148.566161
92.768235,148.753425
92.641615,148.912656
92.552370,149.051743
92.495382,149.178573
92.465529,149.301032
92.457630,149.415887
92.490515,149.621087
92.583767,149.816965
92.729287,149.997639
92.918972,150.157224
93.144721,150.289837
93.398431,150.389596
93.672003,150.450616
93.905876,150.467620
93.993627,150.465279
94.045418,150.449354
94.065266,150.407670
94.057185,150.328051
94.025194,150.198319
94.011456,150.147522
93.978042,149.972811
93.957403,149.749561
93.951470,149.559848
93.951494,149.533485
94.245940,149.533485
94.249602,149.645543
94.266789,149.801597
94.293122,149.962300
94.325153,150.113326
94.359435,150.240347
94.392521,150.329038
94.420963,150.365073
94.422793,150.365253
94.475844,150.348654
94.558182,150.307521
94.582866,150.293202
94.793433,150.132879
94.944913,149.941272
95.035205,149.721857
95.062423,149.500555
95.041173,149.286414
94.979687,149.112017
94.882544,148.983987
94.754326,148.908948
94.641112,148.891427
94.514048,148.923388
94.406110,149.012993
94.322186,149.150823
94.267166,149.327460
94.245940,149.533485
93.951494,149.533485
93.951623,149.388551
93.957175,149.266360
93.971344,149.173858
93.997347,149.091630
94.038401,149.000261
94.047178,148.982279
94.134157,148.834663
94.236122,148.728547
94.304263,148.679846
94.403245,148.622090
94.487890,148.593612
94.589407,148.586934
94.676761,148.590595
94.833837,148.611020
94.957697,148.658695
95.068526,148.745289
95.186509,148.882468
95.190368,148.887484
95.295829,149.061057
95.357761,149.257340
95.381165,149.493506
95.381669,149.544411
95.348049,149.805864
95.251588,150.050971
95.097456,150.272013
94.890821,150.461272
94.681682,150.589428
94.581858,150.640339
94.509990,150.678413
94.484710,150.693325
94.484378,150.734200
94.506395,150.823490
94.545643,150.946796
94.597005,151.089720
94.655364,151.237861
94.715603,151.376822
94.760515,151.469405
94.945358,151.753285
95.188482,152.009249
95.483753,152.232846
95.825036,152.419625
96.206198,152.565135
96.313905,152.596431
96.575798,152.648022
96.887787,152.673123
97.254475,152.671916
97.635658,152.648436
97.831674,152.635428
97.983760,152.637829
98.111120,152.661376
98.232960,152.711807
98.368483,152.794859
98.536894,152.916270
98.540080,152.918644
98.714823,153.041744
98.875948,153.136262
99.043455,153.211003
99.237344,153.274773
99.477618,153.336376
99.501759,153.342013
99.679221,153.381196
99.854986,153.415267
100.035531,153.444667
100.227333,153.469838
100.436868,153.491219
100.670613,153.509253
100.935045,153.524381
101.236641,153.537042
101.581876,153.547679
101.977228,153.556733
102.429174,153.564644
102.861004,153.570778
103.194382,153.575783
103.531382,153.582014
103.860130,153.589167
104.168752,153.596944
104.445372,153.605043
104.678117,153.613163
104.855113,153.621003
104.866267,153.621596
105.110352,153.632767
105.339250,153.638295
105.563679,153.637561
105.794357,153.629948
106.042002,153.614841
106.317330,153.591621
106.631061,153.559671
106.993910,153.518375
107.300005,153.481478
107.944140,153.395414
108.534026,153.300569
109.083774,153.193380
109.607492,153.070283
110.119290,152.927715
110.633277,152.762113
111.163562,152.569912
111.618253,152.390854
111.891525,152.274428
112.111476,152.167091
112.291245,152.061116
112.443975,151.948775
112.579726,151.825407
112.750572,151.655455
112.499988,151.583179
112.216250,151.476139
111.969482,151.332399
111.766594,151.158516
111.614499,150.961044
111.520109,150.746539
111.501035,150.654425
111.814407,150.654425
111.865081,150.793469
111.969589,150.931072
112.121058,151.060739
112.312617,151.175978
112.537393,151.270295
112.656442,151.306601
112.784559,151.339570
112.862556,151.349459
112.906556,151.330839
112.932685,151.278281
112.951806,151.207152
112.987775,150.960881
112.966169,150.747121
112.889991,150.570015
112.762245,150.433708
112.585933,150.342342
112.364059,150.300063
112.292635,150.297578
112.087569,150.316467
111.938402,150.374855
111.845219,150.472704
111.824437,150.520433
111.814407,150.654425
111.501035,150.654425
111.496215,150.631145
111.504411,150.451788
111.572486,150.293219
111.693400,150.161342
111.860110,150.062060
112.065577,150.001274
112.267826,149.984289
112.526453,150.003852
112.740111,150.064037
112.922381,150.169798
113.026064,150.260915
113.159924,150.421942
113.245498,150.595855
113.287720,150.797849
113.291525,151.043118
113.289832,151.073041
113.272002,151.358836
113.362454,151.339009
113.667284,151.251663
113.912272,151.134994
114.100805,150.986176
114.236268,150.802384
114.322047,150.580794
114.334273,150.528202
114.351567,150.282629
114.306946,150.027901
114.205381,149.769896
114.051845,149.514492
113.851309,149.267569
113.608746,149.035003
113.329126,148.822674
113.017423,148.636460
112.678608,148.482239
112.569930,148.442222
112.338873,148.379227
112.103627,148.345919
111.883000,148.343267
111.695800,148.372238
111.631971,148.393943
111.516272,148.419197
111.424406,148.398083
111.368666,148.340112
111.361344,148.254798
111.381969,148.200482
111.461577,148.119511
111.600557,148.064920
111.800580,148.036220
111.963453,148.031218
112.245829,148.047291
112.512205,148.098343
112.786262,148.190040
112.981341,148.274875
113.408054,148.506337
113.779636,148.775926
114.094943,149.082520
114.352832,149.424998
114.552159,149.802237
114.561629,149.824516
114.607246,149.945052
114.634729,150.056276
114.648326,150.183519
114.652283,150.352115
114.652308,150.365381
114.650041,150.528824
114.640078,150.646636
114.618265,150.741650
114.580444,150.836701
114.557955,150.883820
114.431526,151.080043
114.258515,151.263990
114.060373,151.414949
113.940273,151.480198
113.769928,151.548139
113.584452,151.606288
113.407842,151.648192
113.264092,151.667396
113.242311,151.667945
113.178830,151.675623
113.121201,151.706240
113.054504,151.771169
112.966877,151.877884
112.837175,152.027496
112.691943,152.161963
112.522196,152.286795
112.318945,152.407501
112.073204,152.529589
111.775984,152.658569
111.538068,152.753732
111.048452,152.940015
110.603856,153.098356
110.188780,153.233022
109.787724,153.348278
109.385189,153.448393
108.965675,153.537632
108.513684,153.620263
108.208372,153.670358
107.496530,153.773906
106.821370,153.853787
106.188387,153.909599
105.603074,153.940940
105.070923,153.947407
104.643460,153.931722
104.522500,153.925682
104.342238,153.919086
104.111924,153.912164
103.840810,153.905143
103.538143,153.898253
103.213175,153.891723
102.875155,153.885781
102.638197,153.882130
102.123052,153.873548
101.669723,153.863307
101.271481,153.850849
100.921594,153.835615
100.613332,153.817044
100.339964,153.794579
100.094759,153.767660
99.870988,153.735727
99.661918,153.698221
99.460821,153.654583
99.260965,153.604254
99.246198,153.600291
98.973546,153.516756
98.747000,153.422443
98.544110,153.306747
98.387724,153.194752
98.235235,153.080558
98.115869,153.005007
98.010885,152.961908
97.901543,152.945067
97.769103,152.948294
97.669424,152.957424
97.391133,152.978510
97.106220,152.986478
96.831538,152.981777
96.583942,152.964857
96.380285,152.936168
96.313905,152.921240
95.876030,152.781976
95.492093,152.604994
95.157118,152.387630
94.905706,152.167671
94.719954,151.960573
94.563285,151.735362
94.426287,151.476141
94.299548,151.167013
94.277998,151.107378
94.154391,150.759578
93.908863,150.769589
93.603042,150.755064
93.307070,150.690290
93.028495,150.581177
92.774865,150.433633
92.553728,150.253564
92.372633,150.046880
92.239128,149.819487
92.160760,149.577294
92.142720,149.387266
92.154260,149.224345
92.190240,149.069228
92.255632,148.913882
92.355408,148.750276
92.494539,148.570379
92.677998,148.366159
92.910758,148.129585
92.937758,148.103033
93.169200,147.870378
93.352445,147.670725
93.492862,147.494288
93.595820,147.331284
93.666688,147.171929
93.710835,147.006439
93.733630,146.825029
93.740324,146.640505
93.737897,146.448050
93.726801,146.322144
93.706631,146.261284
93.676983,146.263962
93.649896,146.303723
93.606764,146.362889
93.530963,146.448834
93.451161,146.530720
93.244078,146.690452
93.017488,146.789651
92.781177,146.828286
92.544930,146.806323
92.318534,146.723729
92.111773,146.580472
92.064475,146.535356
91.895134,146.324406
91.781925,146.097588
91.725718,145.864127
91.726781,145.716699
92.046571,145.716699
92.051047,145.899985
92.105647,146.081396
92.211888,146.249804
92.338422,146.370253
92.487410,146.464759
92.633441,146.509226
92.807625,146.513108
92.808360,146.513059
92.997821,146.467983
93.111275,146.404634
93.255492,146.276057
93.389870,146.104866
93.494925,145.916321
93.503774,145.895799
93.527563,145.830498
93.529474,145.777943
93.503907,145.717194
93.445261,145.627316
93.423662,145.596245
93.264931,145.416046
93.077118,145.280561
92.872770,145.195342
92.664432,145.165942
92.499599,145.187332
92.318735,145.266854
92.181931,145.389007
92.090705,145.542664
92.046571,145.716699
91.726781,145.716699
91.727383,145.633246
91.787790,145.414168
91.907809,145.216119
91.936852,145.182260
92.042576,145.084840
92.171795,144.991545
92.232648,144.956026
92.338915,144.906876
92.440599,144.878915
92.564609,144.866638
92.680437,144.864425
92.837070,144.868239
92.954315,144.884482
93.061023,144.919008
93.150014,144.959694
93.285796,145.040314
93.426859,145.145444
93.506139,145.216779
93.666911,145.377932
93.644886,145.054041
93.609967,144.728772
93.549023,144.443758
93.455582,144.173545
93.376297,143.997772
93.246580,143.770405
93.098719,143.596017
92.916279,143.459300
92.682824,143.344948
92.669606,143.339578
92.525386,143.280533
92.387151,143.222396
92.281839,143.176518
92.270975,143.171591
92.135738,143.109764
91.893917,143.354612
91.600980,143.609473
91.285632,143.807085
90.954487,143.946080
90.614158,144.025085
90.271260,144.042730
89.932405,143.997644
89.604207,143.888457
89.517146,143.847235
89.402732,143.795280
89.317205,143.767870
89.276035,143.769725
89.245281,143.812429
89.188755,143.894992
89.118369,144.000001
89.114360,144.006041
88.992024,144.168490
88.823276,144.360395
88.617939,144.572002
88.385836,144.793557
88.136791,145.015307
87.898656,145.213103
87.636686,145.429110
87.433745,145.610302
87.289817,145.756696
87.204882,145.868311
87.178818,145.941547
87.149437,146.009903
87.079803,146.063673
87.012129,146.080631
86.948023,146.050699
86.894943,145.977654
86.870508,145.886619
86.870315,145.878391
86.888797,145.780433
86.946950,145.669484
87.048838,145.540894
87.198525,145.390013
87.400073,145.212191
87.584922,145.060583
87.771380,144.907719
87.964153,144.743795
88.146690,144.583280
88.302440,144.440642
88.382528,144.363316
88.504717,144.235265
88.631300,144.092120
88.753696,143.944855
88.863323,143.804443
88.951599,143.681858
89.009944,143.588072
89.029830,143.535607
89.008432,143.496303
88.951865,143.421649
88.871573,143.326564
88.856534,143.309606
88.680407,143.079000
88.535843,142.822723
88.428826,142.556205
88.365346,142.294881
88.355459,142.124391
88.664981,142.124391
88.688345,142.353701
88.770261,142.603307
88.794920,142.657861
88.856760,142.775982
88.932210,142.901940
89.011466,143.021511
89.084724,143.120471
89.142178,143.184594
89.169468,143.201279
89.189891,143.171084
89.219879,143.092685
89.246868,143.004180
89.303079,142.737185
89.326568,142.470711
89.318041,142.219246
89.278204,141.997274
89.207765,141.819284
89.187485,141.786352
89.094001,141.694721
88.984418,141.658674
88.875582,141.679891
88.793931,141.747104
88.700175,141.920487
88.664981,142.124391
88.355459,142.124391
88.351388,142.054182
88.354470,142.015451
88.402742,141.802436
88.494907,141.621694
88.622220,141.480266
88.775934,141.385188
88.947302,141.343500
89.127577,141.362239
89.155466,141.370908
89.305164,141.456580
89.429469,141.597803
89.526746,141.785819
89.595356,142.011871
89.633664,142.267200
89.640033,142.543049
89.612827,142.830661
89.550408,143.121278
89.508044,143.257571
89.443933,143.443915
89.553953,143.511394
89.812688,143.638442
90.087376,143.707947
90.332394,143.725442
90.678693,143.694523
91.004129,143.598348
91.308266,143.437101
91.590670,143.210967
91.628194,143.174394
91.844249,142.958980
91.660464,142.755891
91.445704,142.468744
91.282236,142.137950
91.189883,141.849407
91.135756,141.556177
91.127854,141.390461
91.440536,141.390461
91.472716,141.697022
91.549643,141.995516
91.613463,142.155916
91.670410,142.260497
91.745256,142.371677
91.827349,142.476870
91.906038,142.563489
91.970672,142.618950
92.010601,142.630666
92.013334,142.628418
92.035726,142.584049
92.070800,142.493828
92.110521,142.378607
92.180736,142.109967
92.221295,141.834415
92.233608,141.561404
92.219084,141.300391
92.179133,141.060830
92.115165,140.852176
92.028588,140.683884
91.920814,140.565410
91.832985,140.516995
91.758787,140.524187
91.674066,140.582372
91.592304,140.678328
91.526980,140.798830
91.515917,140.827998
91.454478,141.094548
91.440536,141.390461
91.127854,141.390461
91.122135,141.270521
91.146469,141.001036
91.206206,140.756321
91.298794,140.544973
91.421682,140.375591
91.572319,140.256772
91.675461,140.213178
91.829207,140.200688
Z" /> 
<path style="fill:#000000; fill-opacity:1.000000; stroke:none;fill-rule:evenodd;"
d="M 123.147619,133.780171
123.321462,133.845482
123.489062,133.964731
123.550832,134.021711
123.683326,134.179541
123.789868,134.374392
123.874316,134.615566
123.940528,134.912368
123.954518,134.995315
123.985010,135.167067
124.018293,135.323353
124.050232,135.446365
124.075451,135.515974
124.152310,135.623851
124.247096,135.700339
124.337386,135.728674
124.405163,135.699514
124.489771,135.620293
124.579760,135.503402
124.645888,135.394837
124.727158,135.277480
124.806764,135.227593
124.887068,135.244210
124.929686,135.278612
124.973036,135.327397
124.982741,135.370725
124.960251,135.436023
124.940286,135.479300
124.809973,135.707544
124.664181,135.877099
124.508612,135.987147
124.348968,136.036874
124.190949,136.025462
124.040258,135.952097
123.902597,135.815963
123.796457,135.642979
123.755367,135.553584
123.723319,135.465204
123.696206,135.361525
123.669922,135.226231
123.640362,135.043006
123.632567,134.991697
123.577997,134.712857
123.505729,134.493951
123.412102,134.327806
123.293457,134.207254
123.203477,134.151110
123.014481,134.086972
122.835549,134.089172
122.672471,134.155628
122.531032,134.284254
122.439588,134.426146
122.387654,134.536013
122.360443,134.628111
122.352434,134.731774
122.357324,134.863305
122.403395,135.125468
122.511855,135.392612
122.684417,135.668281
122.842164,135.865786
123.034530,136.098276
123.189171,136.306448
123.301708,136.483877
123.367764,136.624138
123.375289,136.648157
123.408956,136.879927
123.394507,137.137691
123.335889,137.402843
123.237050,137.656774
123.118662,137.857966
123.005930,138.016272
123.039677,138.303580
123.064609,138.726268
123.038983,139.122475
122.965272,139.487917
122.845948,139.818314
122.683484,140.109382
122.480352,140.356838
122.239026,140.556401
121.961977,140.703788
121.651678,140.794716
121.595839,140.804245
121.477268,140.819568
121.361541,140.826855
121.236886,140.825186
121.091533,140.813643
120.913711,140.791308
120.691650,140.757261
120.428480,140.713145
120.057441,140.659282
119.729151,140.631822
119.449327,140.630901
119.223685,140.656652
119.124107,140.682446
118.951419,140.739804
119.098654,140.833610
119.322856,141.013332
119.496903,141.228938
119.619713,141.470860
119.690202,141.729529
119.707286,141.995378
119.669883,142.258837
119.576908,142.510339
119.427279,142.740315
119.326752,142.848192
119.144067,142.982343
118.951889,143.049906
118.756622,143.050880
118.564668,142.985266
118.382429,142.853063
118.377309,142.848192
118.225230,142.657364
118.114523,142.423563
118.046273,142.159287
118.024560,141.911255
118.338761,141.911255
118.360263,142.142868
118.405995,142.319099
118.476056,142.459139
118.571672,142.589515
118.675990,142.689888
118.748858,142.732883
118.846776,142.742941
118.966872,142.719009
119.076402,142.668130
119.088166,142.659897
119.150352,142.596528
119.223827,142.497290
119.272179,142.419029
119.365760,142.187989
119.397709,141.945532
119.369441,141.704577
119.282375,141.478042
119.148296,141.289912
119.054337,141.202892
118.937971,141.115734
118.818097,141.040460
118.713617,140.989094
118.650421,140.973209
118.610451,141.002846
118.556154,141.081109
118.496154,141.192020
118.439073,141.319605
118.393533,141.447886
118.392679,141.450753
118.349424,141.671267
118.338761,141.911255
118.024560,141.911255
118.021564,141.877032
118.041482,141.589297
118.107111,141.308578
118.219537,141.047372
118.220779,141.045121
118.265108,140.955547
118.286733,140.892340
118.285632,140.875615
118.245071,140.871157
118.155155,140.876550
118.034187,140.890602
118.015862,140.893186
117.707957,140.965279
117.447801,141.084634
117.237493,141.248959
117.079133,141.455958
116.974819,141.703338
116.926649,141.988804
116.923437,142.087244
116.927569,142.236716
116.942552,142.383106
116.971152,142.534833
117.016132,142.700315
117.080259,142.887974
117.166298,143.106227
117.277013,143.363495
117.415170,143.668196
117.508836,143.869700
117.628428,144.132354
117.718793,144.350046
117.784418,144.537512
117.829784,144.709486
117.859376,144.880703
117.877677,145.065898
117.879113,145.086569
117.873313,145.441544
117.805281,145.785352
117.672618,146.129539
117.654764,146.166326
117.523206,146.396588
117.361695,146.623038
117.181670,146.833272
116.994571,147.014889
116.811838,147.155485
116.671690,147.232137
116.603874,147.273189
116.551397,147.341195
116.500921,147.454566
116.490811,147.481778
116.351484,147.780839
116.169300,148.041553
115.951612,148.259097
115.705772,148.428651
115.439132,148.545394
115.159044,148.604505
114.872861,148.601161
114.800871,148.589937
114.582213,148.533485
114.370349,148.444214
114.158591,148.317117
113.940250,148.147189
113.708638,147.929425
113.457067,147.658818
113.278037,147.450262
113.054705,147.190724
112.860108,146.981605
112.686097,146.815534
112.524522,146.685142
112.367234,146.583059
112.253176,146.523478
111.925018,146.398690
111.601224,146.335166
111.288066,146.331113
110.991815,146.384739
110.718744,146.494252
110.475123,146.657858
110.267224,146.873765
110.102261,147.138263
110.033013,147.304306
109.992450,147.471713
109.979674,147.655614
109.993786,147.871140
110.033890,148.133421
110.040937,148.171589
110.115598,148.589477
110.171743,148.952619
110.210185,149.272047
110.231738,149.558789
110.237215,149.823877
110.227427,150.078339
110.203189,150.333206
110.201356,150.348242
110.137317,150.740676
110.045526,151.081549
109.920145,151.384262
109.755337,151.662213
109.545263,151.928801
109.482781,151.997615
109.195891,152.265417
108.878653,152.482480
108.523216,152.652897
108.121733,152.780761
107.878268,152.834466
107.688288,152.860835
107.457854,152.878013
107.213275,152.885274
106.980863,152.881894
106.786928,152.867148
106.770370,152.864980
106.509132,152.817368
106.251556,152.744455
105.978515,152.639900
105.689996,152.506772
105.370975,152.341732
105.103482,152.183439
104.872506,152.022128
104.663039,151.848031
104.627016,151.815096
104.404904,151.609307
104.167449,151.863573
103.954354,152.080303
103.756837,152.252217
103.557741,152.389825
103.339912,152.503637
103.086193,152.604165
102.817645,152.690576
102.453663,152.785917
102.120535,152.842298
101.794931,152.862754
101.543510,152.856459
101.099929,152.802665
100.693200,152.695413
100.326731,152.535855
100.028679,152.344320
99.936354,152.280546
99.848959,152.241224
99.740692,152.217597
99.613312,152.203343
99.465360,152.186867
99.330343,152.163355
99.196139,152.128601
99.050626,152.078401
98.881682,152.008549
98.677184,151.914841
98.425011,151.793071
98.411491,151.786444
98.138087,151.648123
97.918718,151.527131
97.743002,151.417337
97.600557,151.312611
97.578739,151.294734
97.428631,151.156050
97.291748,151.004378
97.177428,150.852545
97.095010,150.713379
97.053831,150.599707
97.050882,150.569592
97.069451,150.484238
97.114118,150.408495
97.168321,150.368043
97.181873,150.366471
97.247673,150.399800
97.320156,150.484989
97.377994,150.588188
97.455925,150.712470
97.577077,150.856029
97.725610,151.003331
97.885684,151.138841
98.041460,151.247023
98.062083,151.259137
98.292612,151.385390
98.533194,151.507205
98.771110,151.618947
98.993638,151.714979
99.188057,151.789664
99.341645,151.837367
99.391321,151.848070
99.508675,151.865399
99.596894,151.873240
99.636876,151.869896
99.639680,151.829006
99.625130,151.748965
99.618715,151.724277
99.608650,151.611415
99.930235,151.611415
99.945439,151.730871
99.987399,151.794384
100.050636,151.797838
100.116315,151.751192
100.162116,151.678794
100.141822,151.617641
100.054559,151.566120
100.007360,151.549858
99.950044,151.542568
99.931255,151.581749
99.930235,151.611415
99.608650,151.611415
99.604944,151.569853
99.642258,151.422855
99.721605,151.310706
99.836213,151.249709
99.978130,151.235407
100.128798,151.263541
100.269662,151.329851
100.382166,151.430078
100.409084,151.468515
100.468028,151.601748
100.471019,151.726748
100.415667,151.855246
100.301404,151.997050
100.200907,152.103348
100.279808,152.154995
100.571939,152.315802
100.889175,152.429599
101.241450,152.498978
101.638698,152.526528
101.707465,152.527228
101.965484,152.522543
102.190138,152.504243
102.405430,152.468361
102.635364,152.410925
102.895282,152.330805
103.123768,152.249862
103.308143,152.166912
103.470026,152.068891
103.631034,151.942732
103.810331,151.777736
103.962933,151.628202
104.069474,151.516794
104.135276,151.436251
104.165658,151.379311
104.165939,151.338714
104.149604,151.314630
104.112960,151.235705
104.129070,151.145191
104.192894,151.068372
104.199606,151.063775
104.272909,151.028130
104.320957,151.040780
104.326435,151.045846
104.388270,151.075389
104.460580,151.085219
104.552476,151.114216
104.608103,151.187010
104.611785,151.282303
104.610025,151.288231
104.623818,151.348822
104.687138,151.436842
104.790777,151.544360
104.925531,151.663444
105.082193,151.786161
105.251557,151.904581
105.424416,152.010771
105.491046,152.047293
105.771478,152.192685
106.006219,152.306748
106.208497,152.393203
106.391541,152.455773
106.568577,152.498178
106.752836,152.524140
106.957543,152.537379
107.195928,152.541617
107.248588,152.541712
107.506174,152.538871
107.715137,152.528085
107.895260,152.505961
108.066323,152.469102
108.248110,152.414115
108.460401,152.337606
108.478966,152.330578
108.796465,152.174881
109.089653,151.961876
109.347963,151.701420
109.560827,151.403370
109.648769,151.239470
109.778928,150.897076
109.865914,150.504963
109.909578,150.066788
109.909772,149.586207
109.866348,149.066874
109.779156,148.512445
109.762735,148.428674
109.699831,148.057220
109.672967,147.735912
109.684120,147.455401
109.735269,147.206339
109.828390,146.979374
109.965461,146.765159
110.148462,146.554344
110.162218,146.540308
110.435395,146.308394
110.733001,146.139759
111.051557,146.035064
111.387584,145.994969
111.737602,146.020136
112.098131,146.111225
112.208241,146.151672
112.404869,146.239416
112.589993,146.345838
112.772230,146.478194
112.960198,146.643739
113.162516,146.849730
113.387802,147.103422
113.508139,147.246083
113.738084,147.513319
113.940707,147.728352
114.123498,147.898039
114.293947,148.029235
114.459544,148.128798
114.488313,148.143348
114.604706,148.197787
114.699961,148.231491
114.798079,148.249363
114.923056,148.256303
115.046113,148.257284
115.278658,148.245701
115.465190,148.206039
115.625049,148.130932
115.777576,148.013014
115.837092,147.955992
115.925213,147.856371
116.014494,147.736742
116.093738,147.614527
116.151748,147.507147
116.177328,147.432023
116.177686,147.426043
116.146257,147.395540
116.058420,147.383284
116.048098,147.383195
115.784818,147.350431
115.528851,147.257740
115.293081,147.113524
115.090393,146.926186
114.933671,146.704128
114.898127,146.633275
114.860897,146.535725
114.838768,146.429377
114.828611,146.292947
114.827009,146.149967
115.133389,146.149967
115.137965,146.297501
115.155174,146.406084
115.192003,146.505092
115.239415,146.595581
115.373460,146.770708
115.552318,146.911729
115.759119,147.009892
115.976989,147.056445
116.123321,147.054098
116.217771,147.038738
116.282724,147.021136
116.290354,147.017397
116.308777,146.971252
116.316449,146.872980
116.314579,146.737963
116.304371,146.581579
116.287032,146.419207
116.263769,146.266228
116.235787,146.138021
116.216671,146.077911
116.120991,145.885953
115.997244,145.722383
115.855073,145.593335
115.704125,145.504944
115.554044,145.463342
115.414474,145.474665
115.331542,145.514986
115.250647,145.608208
115.187759,145.754680
115.147226,145.940471
115.133389,146.149967
114.827009,146.149967
114.827000,146.149187
114.846195,145.865370
114.903291,145.631558
115.001282,145.438751
115.104781,145.314272
115.268404,145.191394
115.446924,145.135266
115.640578,145.145881
115.849605,145.223232
115.964342,145.289755
116.199442,145.481276
116.384793,145.718023
116.518512,145.996140
116.598714,146.311771
116.623622,146.638615
116.623622,146.907971
116.729736,146.832411
116.933753,146.655926
117.128454,146.429851
117.300445,146.173032
117.436328,145.904315
117.488751,145.764663
117.537726,145.547141
117.560354,145.292733
117.556327,145.027972
117.525336,144.779391
117.501419,144.675880
117.467082,144.573890
117.408539,144.424572
117.331772,144.242147
117.242763,144.040838
117.149270,143.838620
116.989898,143.492434
116.863039,143.194644
116.765133,142.935344
116.692624,142.704630
116.641955,142.492596
116.619614,142.363939
116.601500,142.033352
116.645224,141.720216
116.747481,141.431211
116.904966,141.173019
117.114374,140.952320
117.372399,140.775795
117.416766,140.752700
117.698569,140.636618
117.976775,140.577261
118.277031,140.569492
118.318973,140.572000
118.462412,140.579417
118.560552,140.575562
118.636209,140.556897
118.712202,140.519884
118.733204,140.507773
118.896876,140.423642
119.068587,140.361344
119.256362,140.320635
119.468222,140.301269
119.712192,140.303002
119.996294,140.325587
120.328550,140.368781
120.716985,140.432339
120.788399,140.445011
121.066145,140.480543
121.341065,140.489675
121.596270,140.473187
121.814871,140.431857
121.928501,140.392406
122.145089,140.260794
122.333249,140.072671
122.489916,139.835219
122.612024,139.555621
122.696509,139.241059
122.740305,138.898713
122.740346,138.535767
122.737677,138.496623
122.715270,138.196690
122.564836,138.196690
122.396864,138.177789
122.241039,138.115867
122.080624,138.003099
122.002573,137.933767
121.824932,137.732431
121.703646,137.507972
121.629970,137.243974
121.627387,137.229483
121.614791,137.069802
121.934598,137.069802
121.948556,137.250104
121.989190,137.398983
122.092009,137.584666
122.225097,137.734201
122.376628,137.837590
122.534775,137.884840
122.566178,137.886673
122.624704,137.884468
122.650333,137.863646
122.651196,137.806496
122.639997,137.725897
122.610336,137.564600
122.566584,137.371613
122.514219,137.167376
122.458720,136.972329
122.405565,136.806910
122.366377,136.704999
122.288703,136.551132
122.219827,136.462627
122.157449,136.437197
122.116177,136.455898
122.040187,136.556025
121.982922,136.704136
121.946890,136.881604
121.934598,137.069802
121.614791,137.069802
121.609153,136.998328
121.631477,136.773117
121.689458,136.564617
121.778196,136.383595
121.892789,136.240818
122.028337,136.147054
122.134120,136.116204
122.220664,136.110862
122.288505,136.129826
122.364056,136.183456
122.411116,136.224825
122.504321,136.325609
122.588927,136.455023
122.668078,136.620767
122.744920,136.830543
122.822596,137.092052
122.904252,137.412994
122.915378,137.459713
122.939705,137.562547
123.011163,137.408296
123.060106,137.252026
123.083950,137.065253
123.082323,136.873638
123.054848,136.702842
123.022770,136.614783
122.974017,136.535293
122.892908,136.422068
122.792465,136.292765
122.724273,136.209995
122.548419,135.997915
122.411940,135.823410
122.306568,135.674760
122.224034,135.540248
122.156070,135.408154
122.151323,135.398004
122.107975,135.297052
122.080438,135.205805
122.065209,135.103309
122.058788,134.968610
122.057649,134.837446
122.059594,134.664293
122.067881,134.540327
122.085462,134.446264
122.115290,134.362820
122.137633,134.315179
122.280387,134.090460
122.456439,133.921170
122.660894,133.810661
122.888858,133.762284
122.947913,133.760291
Z" /> 
<path style="fill:#000000; fill-opacity:1.000000; stroke:none;fill-rule:evenodd;"
d="M 93.820789,131.550572
94.093401,131.613719
94.328376,131.703665
94.635797,131.881586
94.917356,132.122348
95.173123,132.426073
95.403167,132.792886
95.607558,133.222912
95.786367,133.716273
95.939662,134.273096
96.041604,134.751751
96.137089,135.249524
96.224915,135.687574
96.308069,136.073901
96.389539,136.416508
96.472313,136.723394
96.559378,137.002562
96.653723,137.262011
96.758335,137.509744
96.876202,137.753760
97.010311,138.002062
97.163651,138.262650
97.339208,138.543525
97.539971,138.852688
97.616009,138.967945
97.793256,139.253621
97.956856,139.551365
98.099051,139.845147
98.212080,140.118940
98.288054,140.356204
98.338284,140.598503
98.369598,140.866267
98.382050,141.167450
98.375693,141.510006
98.350580,141.901890
98.306766,142.351058
98.301774,142.395746
98.256423,142.841401
98.228640,143.235483
98.219635,143.592995
98.230614,143.928939
98.262784,144.258317
98.317354,144.596131
98.395531,144.957384
98.498522,145.357078
98.556975,145.566461
98.613557,145.773186
98.668371,145.987389
98.715796,146.186200
98.750211,146.346753
98.754990,146.371994
98.788546,146.628518
98.806665,146.938705
98.809497,147.289459
98.797197,147.667684
98.769916,148.060282
98.731031,148.428454
98.684285,148.880487
98.663363,149.274086
98.668234,149.608045
98.698868,149.881158
98.755237,150.092220
98.773298,150.135045
98.832900,150.248345
98.899663,150.332911
98.984230,150.392820
99.097247,150.432147
99.249359,150.454971
99.451210,150.465368
99.641219,150.467462
99.895382,150.471842
100.099660,150.486698
100.272409,150.515945
100.431986,150.563497
100.596747,150.633268
100.728634,150.699326
100.835461,150.761055
100.939603,150.835829
101.052756,150.933733
101.186619,151.064851
101.344494,151.230292
101.480568,151.372586
101.607485,151.499629
101.714996,151.601581
101.792851,151.668600
101.821248,151.688044
101.954615,151.729237
102.096551,151.730372
102.197676,151.699497
102.268847,151.631020
102.336025,151.514529
102.390867,151.370430
102.425029,151.219128
102.432194,151.125938
102.465791,150.835545
102.561663,150.550410
102.714019,150.283990
102.879362,150.086576
103.051752,149.931111
103.228883,149.814248
103.423529,149.731638
103.648468,149.678932
103.916475,149.651784
104.175192,149.645543
104.443602,149.652663
104.668101,149.677687
104.872203,149.726111
105.079421,149.803432
105.300387,149.908559
105.432915,149.979352
105.560389,150.055439
105.692450,150.143862
105.838737,150.251662
106.008892,150.385883
106.212554,150.553566
106.403595,150.714424
106.602194,150.877384
106.771019,151.001904
106.927651,151.099122
107.089670,151.180171
107.234292,151.240584
107.383914,151.294769
107.489786,151.319966
107.569135,151.318521
107.634681,151.295095
107.705080,151.265587
107.805237,151.230016
107.831314,151.221560
107.991066,151.150863
108.168486,151.040249
108.341248,150.905485
108.487031,150.762338
108.495759,150.752281
108.569027,150.663147
108.619983,150.594182
108.636626,150.563133
108.607573,150.538020
108.542583,150.515421
108.352833,150.441104
108.156066,150.313703
107.965861,150.145521
107.795802,149.948863
107.659469,149.736032
107.639914,149.697681
107.580503,149.569045
107.545405,149.465170
107.528420,149.357827
107.523348,149.218782
107.523223,149.166372
107.526419,149.126981
107.814793,149.126981
107.827628,149.317323
107.889990,149.513573
107.892472,149.519041
107.977029,149.665436
108.093475,149.815508
108.229228,149.957716
108.371704,150.080515
108.508320,150.172362
108.626492,150.221713
108.664114,150.226928
108.716742,150.205351
108.785685,150.150953
108.792656,150.144132
108.854904,150.036152
108.876097,149.888287
108.860253,149.712311
108.811389,149.519995
108.733523,149.323114
108.630671,149.133439
108.506850,148.962744
108.366079,148.822801
108.333033,148.797163
108.199938,148.730057
108.074967,148.730994
107.957606,148.800007
107.934182,148.822836
107.850605,148.957252
107.814793,149.126981
107.526419,149.126981
107.543748,148.913428
107.605491,148.714466
107.709890,148.567634
107.858385,148.471081
108.052414,148.422954
108.104080,148.418513
108.229387,148.415370
108.319257,148.430177
108.406149,148.471419
108.475010,148.515487
108.623027,148.638604
108.777553,148.809156
108.923891,149.009385
109.027219,149.182790
109.072793,149.262286
109.099861,149.297752
109.103105,149.285624
109.088462,149.209557
109.070614,149.101589
109.064741,149.062817
109.043679,148.979824
108.999866,148.848348
108.938471,148.682521
108.864663,148.496474
108.807598,148.359940
108.723691,148.158302
108.644117,147.957535
108.575386,147.774754
108.524007,147.627074
108.503969,147.561550
108.414848,147.129935
108.374019,146.663201
108.380550,146.173950
108.433514,145.674783
108.531980,145.178301
108.675018,144.697105
108.725406,144.560394
108.911388,144.145878
109.148012,143.726044
109.424834,143.314914
109.731413,142.926507
110.057305,142.574846
110.392067,142.273951
110.479029,142.205946
110.704755,142.052723
110.963787,141.905510
111.231237,141.777007
111.482219,141.679913
111.551803,141.658459
111.758241,141.613024
111.999992,141.581062
112.253062,141.564033
112.493462,141.563396
112.697199,141.580609
112.733069,141.586626
113.031167,141.675853
113.299451,141.826676
113.491815,141.990530
113.678020,142.176735
113.831729,142.041435
114.086118,141.780355
114.294294,141.482689
114.462957,141.138109
114.524911,140.973209
114.615359,140.682363
114.674765,140.411174
114.707558,140.132142
114.718168,139.817769
114.718151,139.773478
114.715447,139.577467
114.707076,139.428662
114.690227,139.305771
114.662089,139.187506
114.625020,139.068121
114.493240,138.764900
114.308817,138.477802
114.086143,138.227898
113.997809,138.149795
113.717640,137.951549
113.437974,137.816574
113.162694,137.745129
112.895681,137.737474
112.640815,137.793869
112.401979,137.914575
112.251552,138.032749
112.154819,138.130227
112.061449,138.239650
111.981029,138.347575
111.923147,138.440557
111.897391,138.505152
111.900969,138.524330
111.939266,138.522039
112.016326,138.497192
112.050815,138.483211
112.166544,138.450636
112.329866,138.426209
112.520199,138.410855
112.716962,138.405496
112.899573,138.411056
113.047451,138.428460
113.084579,138.436815
113.335556,138.530678
113.529948,138.663071
113.667062,138.832911
113.746204,139.039117
113.766680,139.280607
113.746049,139.468316
113.661686,139.771299
113.525600,140.039623
113.342888,140.265924
113.118646,140.442837
113.041571,140.486461
112.933874,140.535131
112.828143,140.562809
112.697363,140.574995
112.595957,140.577154
112.440274,140.574149
112.324263,140.558828
112.219359,140.525492
112.127700,140.483726
111.996625,140.405770
111.869626,140.308545
111.806797,140.248009
111.702880,140.109597
111.603536,139.937091
111.521002,139.755474
111.467518,139.589732
111.457092,139.534162
111.438810,139.397865
111.276427,139.612369
111.062536,139.861316
110.847439,140.043425
110.628439,140.160397
110.402838,140.213934
110.316469,140.218005
110.087991,140.186774
109.889881,140.095897
109.723800,139.947985
109.591404,139.745645
109.494354,139.491488
109.434306,139.188121
109.412919,138.838155
109.413001,138.796555
109.446368,138.379301
109.540606,137.958767
109.696787,137.532657
109.915984,137.098676
110.199270,136.654525
110.547718,136.197908
110.724426,135.989627
111.125904,135.572982
111.553739,135.210099
112.003037,134.903941
112.468900,134.657469
112.946430,134.473648
113.422822,134.356824
113.628269,134.333259
113.870818,134.325165
114.129356,134.331486
114.382775,134.351169
114.609964,134.383157
114.785103,134.424882
115.020404,134.499845
115.367829,134.328716
115.807767,134.140890
116.263661,134.000276
116.726460,133.907330
117.187109,133.862508
117.636557,133.866264
118.065749,133.919056
118.465632,134.021338
118.793391,134.156285
119.142812,134.361309
119.435732,134.596928
119.669920,134.860639
119.843144,135.149940
119.951257,135.454450
119.990756,135.720684
119.992415,136.028384
119.958517,136.363428
119.891341,136.711690
119.793170,137.059047
119.666283,137.391376
119.623251,137.485422
119.568742,137.593308
119.525753,137.652514
119.478979,137.677448
119.413919,137.682520
119.322281,137.665039
119.277859,137.609888
119.280087,137.513012
119.328398,137.370352
119.360499,137.299561
119.462598,137.051280
119.555182,136.761512
119.630555,136.457303
119.679247,136.179291
119.697483,135.845861
119.657240,135.545354
119.556618,135.271980
119.393714,135.019946
119.244988,134.856421
118.959417,134.618325
118.640699,134.432520
118.283058,134.296487
117.880715,134.207707
117.704646,134.184718
117.287399,134.168494
116.845905,134.203971
116.397563,134.288395
115.959772,134.419009
115.775243,134.490289
115.608207,134.560789
115.499668,134.613296
115.444820,134.656134
115.438859,134.697631
115.476979,134.746112
115.554374,134.809903
115.579527,134.829397
115.783627,135.019182
115.940740,135.231665
116.047630,135.457331
116.101061,135.686666
116.097796,135.910153
116.034599,136.118278
116.024692,136.138201
115.880574,136.346997
115.683492,136.530519
115.446676,136.681339
115.183356,136.792026
114.906761,136.855152
114.726589,136.867161
114.486802,136.847552
114.293737,136.786562
114.136495,136.679961
114.071821,136.612844
113.957969,136.429554
113.901940,136.219143
113.901946,136.032146
114.199922,136.032146
114.206357,136.183253
114.257753,136.328496
114.343706,136.442213
114.376408,136.467490
114.551380,136.546090
114.748265,136.565112
114.971118,136.524447
115.177560,136.445811
115.306299,136.383180
115.425152,136.318648
115.498708,136.272665
115.614695,136.163490
115.712857,136.023028
115.779427,135.874865
115.800950,135.754876
115.768367,135.574135
115.674463,135.387582
115.525002,135.203524
115.325749,135.030270
115.270977,134.991094
115.083206,134.861771
114.889559,135.011169
114.683268,135.194787
114.501545,135.403911
114.353855,135.624530
114.249659,135.842635
114.199922,136.032146
113.901946,136.032146
113.901947,135.988353
113.956203,135.743926
114.062923,135.492605
114.220319,135.241131
114.426605,134.996245
114.526192,134.898104
114.608750,134.816160
114.662621,134.753229
114.676911,134.722141
114.676159,134.721496
114.632534,134.707836
114.541972,134.686490
114.435994,134.664475
114.244581,134.641611
114.009813,134.635894
113.754370,134.646050
113.500932,134.670805
113.272179,134.708885
113.161544,134.736061
112.705439,134.900826
112.256237,135.130689
111.818228,135.422243
111.395702,135.772078
110.992950,136.176786
110.614263,136.632960
110.401443,136.928404
110.269810,137.136587
110.138052,137.372403
110.014630,137.618296
109.908007,137.856709
109.826644,138.070085
109.787506,138.202226
109.731719,138.504050
109.711118,138.794329
109.723520,139.065962
109.766740,139.311849
109.838594,139.524889
109.936897,139.697982
110.059466,139.824028
110.204115,139.895926
110.312969,139.910269
110.444060,139.891943
110.576735,139.834266
110.717559,139.732154
110.873102,139.580523
111.049931,139.374289
111.120527,139.285104
111.265877,139.091596
111.302641,139.037996
111.739006,139.037996
111.743341,139.279817
111.773752,139.534251
111.850630,139.760075
111.966797,139.951713
112.115075,140.103589
112.288284,140.210128
112.479247,140.265752
112.680784,140.264886
112.885717,140.201955
112.913138,140.188459
113.096524,140.058103
113.252685,139.877163
113.371531,139.661433
113.442976,139.426708
113.455241,139.339648
113.450025,139.140817
113.391664,138.981527
113.278720,138.860511
113.109756,138.776505
112.883333,138.728245
112.747441,138.717092
112.463964,138.722678
112.219886,138.771730
111.998439,138.868402
111.906148,138.925547
111.739006,139.037996
111.302641,139.037996
111.378429,138.927499
111.453349,138.800235
111.483461,138.727999
111.595778,138.405369
111.751220,138.117422
111.943691,137.871301
112.167093,137.674145
112.415331,137.533094
112.543113,137.486941
112.782249,137.441845
113.048931,137.433623
113.313372,137.461566
113.504324,137.509833
113.736806,137.611139
113.981088,137.755613
114.214197,137.927341
114.413157,138.110409
114.480104,138.185750
114.689437,138.472138
114.843980,138.762644
114.948449,139.070984
115.007559,139.410873
115.025989,139.773478
115.001756,140.253338
114.926603,140.709598
114.802941,141.136038
114.633180,141.526438
114.419732,141.874577
114.165009,142.174237
114.055919,142.275821
113.853674,142.451729
113.967089,142.697961
114.110366,143.054364
114.195649,143.376616
114.223147,143.666796
114.193069,143.926980
114.112464,144.146099
113.965625,144.359822
113.761050,144.544451
113.504256,144.697327
113.200760,144.815789
112.856082,144.897176
112.475739,144.938829
112.467275,144.939265
112.188964,144.944980
111.964167,144.928745
111.780413,144.887212
111.625232,144.817033
111.486154,144.714861
111.428263,144.660323
111.274938,144.463634
111.171045,144.237926
111.115828,143.994864
111.110504,143.813296
111.414788,143.813296
111.443906,144.047919
111.482020,144.170597
111.561843,144.338960
111.664154,144.464680
111.797719,144.552013
111.971304,144.605214
112.193674,144.628538
112.424566,144.628156
112.638500,144.616111
112.811051,144.593638
112.969116,144.556438
113.067914,144.525355
113.362336,144.404816
113.593259,144.262542
113.761385,144.096561
113.867416,143.904900
113.912051,143.685587
113.895994,143.436647
113.819944,143.156109
113.684604,142.841998
113.673866,142.820560
113.573354,142.621447
113.341740,142.708926
113.217520,142.749789
113.047703,142.797418
112.854094,142.846055
112.658500,142.889943
112.647374,142.892259
112.362379,142.955603
112.135251,143.016635
111.955567,143.079092
111.812905,143.146710
111.696841,143.223227
111.674593,143.241005
111.531987,143.400882
111.444767,143.594631
111.414788,143.813296
111.110504,143.813296
111.108534,143.746110
111.148408,143.503330
111.234695,143.278187
111.366640,143.082344
111.540242,142.929605
111.679428,142.847357
111.834354,142.777447
112.018480,142.715268
112.245270,142.656213
112.498872,142.601546
112.753479,142.546395
112.973311,142.491112
113.151275,142.437962
113.280276,142.389209
113.353219,142.347118
113.367212,142.324401
113.341027,142.274690
113.273474,142.202870
113.181055,142.123587
113.080271,142.051490
113.020456,142.016632
112.768865,141.921354
112.478476,141.871828
112.162486,141.869126
111.834097,141.914323
111.814329,141.918572
111.594108,141.983580
111.344696,142.084473
111.087373,142.210741
110.843420,142.351873
110.634118,142.497361
110.620242,142.508288
110.257043,142.832228
109.914037,143.206124
109.600282,143.616855
109.324838,144.051304
109.096761,144.496350
108.925112,144.938874
108.911015,144.983735
108.825946,145.280581
108.764692,145.547434
108.723986,145.806899
108.700560,146.081581
108.691147,146.394084
108.690560,146.509106
108.695107,146.805315
108.711665,147.053373
108.744241,147.273219
108.796846,147.484790
108.873488,147.708022
108.978176,147.962855
108.986949,147.983060
109.099317,148.241651
109.187370,148.447951
109.254082,148.612559
109.302428,148.746074
109.335383,148.859095
109.355920,148.962221
109.367015,149.066052
109.371641,149.181186
109.372774,149.318223
109.372863,149.358176
109.373824,149.807786
109.232370,150.095153
109.155043,150.252588
109.075523,150.415049
109.008163,150.553200
108.994078,150.582208
108.881871,150.768105
108.726444,150.963922
108.546157,151.149446
108.359367,151.304466
108.302681,151.343383
108.177682,151.424801
108.054604,151.505613
107.977339,151.556837
107.904672,151.600568
107.836219,151.624491
107.749652,151.632548
107.622645,151.628676
107.583142,151.626377
107.305830,151.580542
107.009275,151.478758
106.704565,151.326557
106.402789,151.129470
106.117414,150.895210
105.813199,150.633649
105.512389,150.407806
105.227444,150.226644
105.077899,150.147297
104.860873,150.050272
104.680752,149.987539
104.543565,149.960716
104.455344,149.971423
104.445176,149.977428
104.393945,149.989974
104.292377,149.998190
104.158618,150.000903
104.095012,150.000069
103.945825,149.996598
103.814078,149.993524
103.721269,149.991350
103.700815,149.990867
103.573797,150.014688
103.422979,150.083913
103.263242,150.187347
103.109471,150.313795
102.976547,150.452062
102.879354,150.590952
102.864483,150.619976
102.826433,150.743607
102.798896,150.932589
102.784674,151.124350
102.773971,151.295700
102.761654,151.411149
102.745205,151.483345
102.722103,151.524935
102.701458,151.542095
102.650430,151.589581
102.638197,151.619631
102.619397,151.667778
102.571581,151.747487
102.538856,151.794795
102.403093,151.926681
102.229553,152.010993
102.033998,152.042976
101.832189,152.017878
101.815303,152.012976
101.722649,151.979109
101.633621,151.931751
101.538594,151.863129
101.427944,151.765472
101.292045,151.631009
101.123647,151.454496
100.962164,151.285227
100.833980,151.158414
100.727829,151.064416
100.632445,150.993595
100.536561,150.936311
100.489804,150.912160
100.403944,150.870229
100.331403,150.839486
100.259008,150.817805
100.173586,150.803061
100.061964,150.793128
99.910968,150.785881
99.707426,150.779196
99.656010,150.777641
99.438195,150.770624
99.276011,150.763355
99.156554,150.753898
99.066920,150.740316
98.994205,150.720671
98.925506,150.693029
98.850477,150.656730
98.681742,150.545923
98.549184,150.397488
98.450746,150.206183
98.384368,149.966763
98.347993,149.673984
98.339248,149.354180
98.345982,149.149614
98.361991,148.909601
98.384765,148.666232
98.407651,148.480091
98.433779,148.269496
98.452429,148.053206
98.464438,147.815127
98.470646,147.539159
98.471969,147.246083
98.471303,146.995076
98.469349,146.799825
98.464914,146.647530
98.456803,146.525389
98.443822,146.420603
98.424777,146.320372
98.398473,146.211895
98.363717,146.082372
98.363242,146.080631
98.257199,145.688723
98.169131,145.355553
98.097321,145.074189
98.040053,144.837702
97.995610,144.639162
97.962277,144.471639
97.955741,144.435287
97.918841,144.139469
97.901228,143.790169
97.902800,143.399661
97.923454,142.980219
97.963086,142.544119
97.972286,142.464302
98.015840,142.077267
98.046673,141.747176
98.064716,141.463595
98.069901,141.216091
98.062160,140.994229
98.041423,140.787575
98.007622,140.585695
97.960689,140.378155
97.958510,140.369478
97.892775,140.170998
97.785315,139.927186
97.639432,139.644403
97.458431,139.329013
97.245615,138.987377
97.221925,138.950806
97.002701,138.608349
96.812649,138.297641
96.648196,138.009181
96.505773,137.733466
96.381807,137.460993
96.272728,137.182259
96.174963,136.887761
96.084942,136.567996
95.999093,136.213462
95.913845,135.814655
95.825627,135.362073
95.779108,135.111670
95.660756,134.529261
95.530699,134.011766
95.387363,133.556297
95.229177,133.159965
95.054569,132.819881
94.861965,132.533158
94.649793,132.296906
94.416480,132.108237
94.160454,131.964261
94.038057,131.913524
93.954629,131.885576
93.869187,131.865899
93.767643,131.853147
93.635910,131.845975
93.459901,131.843038
93.297441,131.842791
93.075880,131.844518
92.904674,131.849998
92.765649,131.861098
92.640632,131.879690
92.511446,131.907643
92.406213,131.934465
92.123180,132.024978
91.831025,132.146087
91.550698,132.287526
91.303146,132.439028
91.162491,132.543987
90.989222,132.703183
90.805299,132.904476
90.605690,133.153935
90.385358,133.457628
90.291751,133.593509
90.022516,133.954833
89.725340,134.291959
89.408380,134.598312
89.079789,134.867319
88.747722,135.092403
88.420333,135.266991
88.105776,135.384508
88.052907,135.398653
87.704372,135.458468
87.321849,135.475187
86.924292,135.449265
86.530660,135.381160
86.444064,135.359939
86.206342,135.298282
85.667713,135.577998
85.478425,135.677851
85.297654,135.776026
85.139595,135.864609
85.018442,135.935684
84.962790,135.971058
84.874279,136.038104
84.765943,136.129941
84.649431,136.235393
84.536396,136.343285
84.438487,136.442438
84.367355,136.521678
84.334651,136.569827
84.333743,136.574491
84.364888,136.594220
84.446923,136.617920
84.562752,136.640752
84.574626,136.642658
84.798273,136.699323
84.968838,136.787443
85.083498,136.901945
85.139429,137.037756
85.133809,137.189806
85.063815,137.353021
85.011477,137.427600
84.884522,137.537927
84.717736,137.611296
84.531346,137.643808
84.345580,137.631562
84.203835,137.583334
84.065066,137.494051
83.964343,137.378435
83.913414,137.289724
83.861562,137.188291
83.790134,137.305747
83.716220,137.486326
83.688443,137.697138
83.707905,137.905327
83.735748,138.000006
83.786866,138.139255
83.854547,138.305993
83.932083,138.483136
83.951396,138.525264
84.034643,138.712463
84.113660,138.903219
84.180220,139.076824
84.226095,139.212569
84.230565,139.227963
84.276867,139.439526
84.308985,139.682686
84.325398,139.933523
84.324585,140.168119
84.305028,140.362554
84.303290,140.372076
84.218377,140.669719
84.084621,140.936865
83.908604,141.164001
83.696903,141.341613
83.589698,141.403889
83.486889,141.452378
83.397107,141.482274
83.297565,141.497940
83.165478,141.503741
83.065457,141.504306
82.906184,141.502231
82.792538,141.493139
82.701627,141.472354
82.610564,141.435202
82.531068,141.395180
82.288697,141.237709
82.081406,141.041178
81.924924,140.820791
81.912076,140.796874
81.855340,140.671495
81.825879,140.552892
81.815940,140.407029
81.815619,140.373343
81.815348,140.292649
81.817931,140.226943
81.827471,140.166053
81.848070,140.099806
81.883830,140.018029
81.938853,139.910549
82.017241,139.767192
82.123098,139.577787
82.170651,139.492923
82.240547,139.349085
82.274770,139.218801
82.283607,139.098726
82.270005,138.899428
82.217012,138.727869
82.118730,138.576994
81.969264,138.439749
81.762716,138.309079
81.526270,138.192673
81.197658,138.034881
80.928420,137.882197
80.710353,137.728196
80.535252,137.566452
80.394914,137.390539
80.300900,137.232888
80.254236,137.136283
80.225412,137.049332
80.210217,136.949916
80.204438,136.815916
80.203751,136.722736
80.213834,136.498688
80.250651,136.317076
80.322876,136.155698
80.439180,135.992350
80.529480,135.888800
80.640035,135.779059
80.761416,135.684361
80.906512,135.597265
81.088212,135.510329
81.319404,135.416110
81.403717,135.384043
81.663120,135.282910
81.864726,135.194628
82.016843,135.113880
82.127781,135.035351
82.205846,134.953724
82.259348,134.863682
82.274780,134.826645
82.310682,134.637631
82.281278,134.438630
82.188130,134.234775
82.032801,134.031201
82.032680,134.031070
81.871689,133.882012
81.704402,133.786318
81.508690,133.733478
81.374222,133.718383
81.237212,133.704669
81.115821,133.685843
81.037749,133.666409
80.953509,133.607314
80.928419,133.524846
80.966912,133.434181
80.969106,133.431481
81.000000,133.400000
81.038863,133.381966
81.100694,133.375932
81.200493,133.380454
81.353258,133.394088
81.355250,133.394279
81.615583,133.433843
81.831530,133.503037
82.024174,133.611150
82.214597,133.767470
82.225458,133.777681
82.408759,133.989677
82.536147,134.221675
82.604750,134.464368
82.611697,134.708450
82.571149,134.897804
82.500108,135.060336
82.397995,135.202474
82.257328,135.329878
82.070629,135.448212
81.830416,135.563135
81.544624,135.674750
81.224560,135.803443
80.968704,135.936330
80.772708,136.077636
80.632225,136.231584
80.542906,136.402399
80.500405,136.594305
80.495360,136.694186
80.527727,136.938381
80.626389,137.166881
80.790758,137.379043
81.020246,137.574227
81.314265,137.751791
81.575918,137.872662
81.734552,137.942655
81.891853,138.019303
82.021232,138.089428
82.055771,138.110485
82.279630,138.289927
82.445045,138.500637
82.550754,138.736064
82.595496,138.989661
82.578008,139.254877
82.497029,139.525162
82.373565,139.759939
82.238852,139.987007
82.150157,140.172813
82.108755,140.314529
82.105673,140.353714
82.136112,140.525065
82.220028,140.703343
82.346317,140.872464
82.503877,141.016343
82.610213,141.084632
82.848397,141.179477
83.085426,141.206946
83.315141,141.167943
83.531386,141.063370
83.698503,140.925124
83.820718,140.783249
83.907789,140.634048
83.965637,140.461371
84.000183,140.249067
84.013840,140.064841
84.013395,139.817159
83.984707,139.571503
83.924500,139.314780
83.829500,139.033897
83.696432,138.715762
83.652204,138.618869
83.572589,138.440291
83.500956,138.267121
83.444097,138.116662
83.408806,138.006221
83.404173,137.987002
83.378520,137.716159
83.414203,137.449888
83.507215,137.201028
83.596053,137.068310
84.175720,137.068310
84.206422,137.150278
84.294799,137.267630
84.414055,137.328860
84.552126,137.331286
84.696947,137.272225
84.711659,137.262615
84.801303,137.193572
84.835543,137.137778
84.820983,137.079239
84.800333,137.047828
84.759395,137.011017
84.691682,136.988185
84.580659,136.975085
84.499939,136.970693
84.336021,136.968172
84.232360,136.980532
84.181435,137.012377
84.175720,137.068310
83.596053,137.068310
83.653546,136.982419
83.747792,136.886377
83.851057,136.778677
83.943059,136.656748
83.986843,136.580878
84.091230,136.404465
84.240885,136.211513
84.420991,136.018499
84.616734,135.841899
84.729304,135.755129
84.865102,135.664234
85.041246,135.556140
85.236365,135.443494
85.429087,135.338947
85.456363,135.324799
85.910561,135.090821
85.785039,134.955564
85.651908,134.770115
85.568318,134.562763
85.533667,134.345910
85.541866,134.217724
85.840125,134.217724
85.848054,134.326947
85.885590,134.406738
85.909056,134.425321
85.961385,134.482224
85.996696,134.571174
85.997808,134.576735
86.027362,134.676425
86.073867,134.777860
86.125849,134.860483
86.171832,134.903739
86.181622,134.906002
86.226406,134.885652
86.297422,134.835143
86.317248,134.818934
86.387415,134.741611
86.465891,134.628032
86.525546,134.522096
86.605506,134.321043
86.628391,134.153669
86.594545,134.021600
86.504312,133.926459
86.389168,133.877324
86.226610,133.860691
86.071564,133.892598
85.945873,133.967284
85.912369,134.003084
85.861624,134.102095
85.840125,134.217724
85.541866,134.217724
85.547351,134.131958
85.608767,133.933308
85.717313,133.762363
85.848682,133.646442
85.932872,133.596671
86.013321,133.568078
86.114227,133.555062
86.256592,133.552021
86.398212,133.554751
86.495479,133.566972
86.572511,133.594730
86.653425,133.644071
86.670288,133.655729
86.813387,133.780609
86.897996,133.921673
86.931465,134.094496
86.930791,134.207780
86.901500,134.380400
86.838334,134.569143
86.752048,134.749386
86.653397,134.896506
86.609225,134.944043
86.552937,135.004088
86.527642,135.045231
86.527535,135.046659
86.559900,135.073870
86.649340,135.099767
86.784376,135.122785
86.953528,135.141357
87.145317,135.153917
87.348262,135.158899
87.350208,135.158905
87.673022,135.145082
87.961430,135.097845
88.232045,135.011496
88.501480,134.880337
88.786346,134.698668
88.873121,134.636523
89.095163,134.463973
89.302769,134.279374
89.504975,134.072878
89.710818,133.834635
89.929337,133.554797
90.169198,133.224040
90.302970,133.041288
90.448005,132.854654
90.589783,132.682121
90.713781,132.541677
90.754169,132.499502
91.098577,132.200034
91.485019,131.954189
91.912130,131.762519
92.378543,131.625578
92.882891,131.543921
93.163449,131.523321
93.515736,131.521202
Z" /> 
</g> 
</svg>
