<?xml version="1.0" standalone="no"?>
 <!DOCTYPE svg PUBLIC "-//W3C//DTD SVG 1.1//EN" 
 "http://www.w3.org/Graphics/SVG/1.1/DTD/svg11.dtd"> 
<svg
  xmlns:svg="http://www.w3.org/2000/svg"
  xmlns="http://www.w3.org/2000/svg"
  xmlns:xlink="http://www.w3.org/1999/xlink"
  xmlns:inkscape="http://www.inkscape.org/namespaces/inkscape"
  version="1.1"
  width="297.002200mm" height="210.007200mm" viewBox="0.000000 0.000000 297.002200 210.007200">
<title>SVG Image created as Alpenglow_FUterus_PCB-User_1.svg date 2026-03-21T21:26:56 </title>
  <desc>Image generated by PCBNEW </desc>
<g style="fill:#000000; fill-opacity:1.000000;stroke:#000000; stroke-opacity:1.000000;
stroke-linecap:round; stroke-linejoin:round;"
 transform="translate(0 0) scale(1 1)">
<path style="fill:#000000; fill-opacity:1.000000; stroke:none;fill-rule:evenodd;"
d="M 247.765936,23.573431
248.905980,24.056064
249.529981,24.515887
249.912778,24.756372
250.533897,25.040973
251.226773,25.296961
252.684237,25.925878
253.817710,26.755990
254.628266,27.791359
255.116980,29.036048
255.284926,30.494118
255.133179,32.169632
254.662813,34.066651
254.017165,35.846810
253.711668,36.663012
253.477804,37.415136
253.351942,37.980801
253.339981,38.125717
253.216045,38.734879
252.879988,39.074250
252.385438,39.091326
252.361241,39.083969
251.943970,38.760648
251.668983,38.155684
251.581519,37.451734
251.653866,37.046780
251.848518,36.389763
252.131887,35.586949
252.333976,35.070991
252.894848,33.600831
253.266837,32.388098
253.467390,31.358363
253.513951,30.437195
253.495996,30.113216
253.261768,29.045025
252.733343,28.198467
251.874486,27.521693
251.568406,27.354824
250.612667,26.870514
250.483214,27.409068
250.304385,27.954804
250.040308,28.569617
250.009731,28.631469
249.323406,29.590113
248.392167,30.316544
247.300699,30.780675
246.133688,30.952418
244.975819,30.801686
244.449981,30.606799
243.513320,30.018826
242.835946,29.208637
242.393184,28.225169
242.235064,27.758094
244.033093,27.758094
244.143069,28.019464
244.593845,28.538786
245.261656,28.966125
245.972891,29.199690
246.185380,29.216892
246.735247,29.112914
247.327936,28.858142
247.386317,28.823413
248.159332,28.168272
248.605609,27.382243
248.681461,27.054098
248.685806,26.759371
248.525629,26.607496
248.105232,26.535085
247.869211,26.516078
246.704206,26.506412
245.657492,26.638874
244.825310,26.895942
244.417300,27.144634
244.086832,27.480501
244.033093,27.758094
242.235064,27.758094
242.052660,27.219288
241.790173,27.974225
241.605238,28.869501
241.559816,29.984356
241.648481,31.175470
241.865808,32.299527
241.966674,32.636854
242.204152,33.320430
242.534101,34.231184
242.906517,35.232426
243.161545,35.903127
243.511251,36.894079
243.810168,37.890483
244.019905,38.756267
244.092019,39.201160
244.194981,39.921276
244.371719,40.422025
244.702111,40.874760
245.033556,41.220914
245.929769,42.335554
246.584578,43.604805
246.974899,44.944334
247.077651,46.269807
246.869754,47.496891
246.803108,47.686373
246.266297,48.607473
245.437999,49.438347
244.417477,50.092420
243.720894,50.374622
243.014433,50.546632
242.090654,50.703371
241.122793,50.816621
240.896946,50.834640
239.135756,50.959652
238.890198,51.638732
238.324372,52.657814
237.468797,53.493759
236.411320,54.064037
236.250803,54.118406
235.185037,54.317335
234.264874,54.221471
233.539203,53.850824
233.056912,53.225407
232.907198,52.749746
232.914112,52.255469
234.697525,52.255469
234.814906,52.519595
235.227760,52.648351
235.494938,52.576924
235.927035,52.382894
235.948592,52.371816
236.423048,52.039888
236.843429,51.607874
237.095172,51.202677
237.123058,51.070864
236.964091,51.015919
236.556219,51.100052
236.002982,51.293573
235.425705,51.557561
234.904546,51.915941
234.697525,52.255469
232.914112,52.255469
232.919804,51.848531
233.297980,51.037969
234.023134,50.337170
235.076670,49.765244
236.156882,49.409860
236.869696,49.219573
237.267827,49.042019
237.395607,48.783267
237.297366,48.349384
237.017436,47.646439
237.004287,47.614331
236.736942,46.961039
235.742393,48.049235
234.658057,49.032198
233.449931,49.779156
232.189304,50.265347
230.947463,50.466012
229.795698,50.356390
229.430633,50.241504
228.829308,49.958301
228.341653,49.637654
228.226703,49.530601
227.826437,49.205579
227.454029,49.221311
227.012029,49.583266
226.996556,49.599657
226.590069,49.927934
225.974601,50.312660
225.441068,50.592600
224.615710,51.076541
223.997455,51.615784
223.861732,51.788356
223.239242,52.472189
222.348306,53.158393
221.303128,53.770092
220.250098,54.219493
219.056192,54.554855
217.846268,54.732611
216.559464,54.748257
215.134915,54.597284
213.511759,54.275188
211.629131,53.777461
210.750351,53.516161
208.973631,52.982911
207.488157,52.559310
206.216293,52.226075
205.080400,51.963923
204.002839,51.753569
202.985795,51.587644
201.098726,51.304366
199.676504,52.480788
198.215720,53.600736
196.763548,54.548878
195.404546,55.273353
194.564515,55.616011
193.487488,55.883577
192.370138,55.986719
191.330996,55.926169
190.488592,55.702656
190.267839,55.589537
189.583560,54.966861
189.210103,54.171361
189.184781,53.707014
190.841996,53.707014
191.020595,53.891888
191.098478,53.949523
191.771176,54.214834
192.667309,54.229774
193.717490,54.002725
194.852326,53.542070
194.971217,53.481709
195.806118,53.019190
196.646504,52.504132
197.319085,52.043088
197.354443,52.016324
198.297713,51.296084
197.186763,51.296084
196.223902,51.354140
195.123999,51.510095
194.021603,51.736634
193.051262,52.006442
192.389710,52.269978
191.784119,52.654436
191.243785,53.111245
191.207673,53.148970
190.898382,53.503162
190.841996,53.707014
189.184781,53.707014
189.161752,53.284707
189.452792,52.388567
189.651802,52.067502
190.159988,51.587031
190.968200,51.091397
191.988664,50.613515
193.133607,50.186299
194.315253,49.842664
195.445830,49.615525
196.398260,49.537623
196.653943,49.521208
196.712244,49.434155
196.543704,49.219750
196.118866,48.821279
195.944569,48.664142
194.976476,47.548622
194.346090,46.277435
194.078650,44.974176
195.888865,44.974176
196.048932,45.921011
196.178814,46.262649
196.716919,47.000995
197.539168,47.656430
198.539683,48.170149
199.612583,48.483348
200.300091,48.551561
200.798957,48.519895
201.161806,48.356198
201.530809,47.978780
201.724904,47.732878
202.625663,46.374954
203.178882,45.077728
203.408496,43.780618
203.418143,43.446875
203.341164,42.437699
203.067680,41.676337
202.536753,41.044102
201.955814,40.598777
201.156708,40.260686
200.183449,40.151924
199.180071,40.274979
198.459467,40.538419
197.628713,41.117631
196.849613,41.928205
196.259812,42.820310
196.154189,43.047762
195.923476,43.954380
195.888865,44.974176
194.078650,44.974176
194.064939,44.907362
194.144550,43.495188
194.596453,42.097694
194.606953,42.075381
195.264768,41.014648
196.157214,40.033057
197.177757,39.229152
198.219863,38.701477
198.274638,38.682776
199.725754,38.370760
201.067882,38.403992
202.273037,38.745439
203.313230,39.358067
204.160475,40.204841
204.786785,41.248729
205.164173,42.452696
205.264652,43.779709
205.060236,45.192734
204.522938,46.654738
204.434007,46.833187
204.094610,47.507420
203.925195,47.899884
203.911934,48.073650
204.040999,48.091788
204.165264,48.058999
205.136670,47.656917
206.219915,47.033383
207.283234,46.272492
208.117426,45.536626
209.064145,44.478369
209.676761,43.505897
209.985652,42.564089
210.036728,42.053930
209.994127,41.495284
209.769845,41.084002
209.406778,40.741394
208.803146,40.330829
208.077638,39.958793
207.846389,39.865717
207.157634,39.572336
206.357493,39.173048
205.861519,38.895756
204.872015,38.417834
203.831525,38.172053
203.516904,38.135657
202.196951,37.857117
200.826379,37.308901
199.549876,36.559794
198.654569,35.824055
198.158125,35.245354
197.652296,34.508301
197.197902,33.720745
196.855763,32.990535
196.686699,32.425518
196.678596,32.320168
196.581112,32.124916
196.242085,31.987328
195.591317,31.880853
195.483913,31.868336
193.971419,31.561947
192.243049,30.965785
190.331780,30.091362
190.196151,30.022165
188.827802,29.391826
187.634209,29.016651
186.513470,28.875833
185.363685,28.948561
185.124099,28.986416
183.759313,29.324086
182.443404,29.837903
181.299544,30.472633
180.613399,31.009128
180.190490,31.431142
180.010301,31.727113
180.023416,32.030532
180.124886,32.328751
180.260379,32.781810
180.196543,33.048788
179.984509,33.238795
179.406061,33.489406
178.888480,33.413684
178.473322,33.075589
178.202142,32.539081
178.116494,31.868119
178.257934,31.126662
178.400000,30.800000
178.969078,30.044530
179.849462,29.300724
180.962541,28.606067
182.229704,27.998045
183.572343,27.514145
184.911846,27.191853
186.169603,27.068654
186.225365,27.068392
187.583954,27.200135
189.068840,27.605388
190.731568,28.299192
191.156667,28.507229
192.507199,29.151219
193.633630,29.606571
194.632470,29.908049
195.521034,30.079299
196.415164,30.208308
196.557075,29.697884
198.437602,29.697884
198.602210,29.850667
199.023490,29.803955
199.169596,29.766150
199.836438,29.539077
200.551279,29.234603
200.683827,29.169745
201.738816,28.536820
202.586359,27.828278
203.143863,27.114787
203.191263,27.024267
203.382938,26.585939
203.383026,26.342488
203.189760,26.147223
203.180610,26.140315
202.582199,25.918478
201.848793,25.992941
201.047305,26.325440
200.244646,26.877709
199.507728,27.611483
198.903465,28.488498
198.828997,28.628874
198.517314,29.304367
198.437602,29.697884
196.557075,29.697884
196.733076,29.064843
197.322447,27.593208
198.193969,26.323389
199.300430,25.305526
200.594615,24.589765
201.115498,24.410403
202.289334,24.203522
203.326025,24.283623
204.176056,24.632685
204.789915,25.232686
205.069159,25.849499
205.148451,26.833498
204.862088,27.809684
204.234742,28.751648
203.291086,29.632979
202.055790,30.427269
200.553527,31.108108
199.960983,31.317431
199.203589,31.573032
198.749473,31.759863
198.529991,31.929062
198.476504,32.131766
198.515410,32.394383
198.783314,33.079003
199.284643,33.852451
199.925134,34.590666
200.610522,35.169590
200.638117,35.188062
201.178655,35.492571
201.883001,35.820560
202.626972,36.122075
203.286384,36.347159
203.737053,36.445856
203.767299,36.446854
203.867135,36.281519
203.842117,35.875093
203.839377,35.861143
203.820090,35.365743
205.666134,35.365743
205.683683,35.977340
205.781404,36.315889
206.026912,36.406446
206.487822,36.274068
207.229211,35.944987
208.338755,35.306286
209.255549,34.532245
209.926339,33.683929
210.297871,32.822403
210.355365,32.360354
210.226377,31.825813
209.817288,31.503825
209.094909,31.372480
208.850489,31.366854
207.944188,31.550795
207.124211,32.060078
206.441371,32.830893
205.946480,33.799430
205.690351,34.901879
205.666134,35.365743
203.820090,35.365743
203.809653,35.097645
203.948578,34.143539
204.226611,33.144999
204.541067,32.388779
205.211671,31.368459
206.055909,30.572133
207.016695,30.004282
208.036946,29.669393
209.059577,29.571949
210.027504,29.716433
210.883644,30.107330
211.570911,30.749124
212.032221,31.646299
212.076693,31.796847
212.162369,32.830986
211.902833,33.904622
211.332354,34.964014
210.485203,35.955417
209.395647,36.825088
208.565060,37.303953
207.653986,37.759366
209.144960,38.519648
209.956569,38.962832
210.513588,39.358113
210.926570,39.796763
211.226042,40.237813
211.599518,40.937246
211.769394,41.573939
211.799678,42.289351
211.595601,43.530509
211.048241,44.788522
210.199899,46.016804
209.092878,47.168768
207.769479,48.197825
206.272003,49.057388
205.261814,49.489587
204.200750,49.885963
204.982288,50.086507
205.688991,50.257604
206.379670,50.409802
206.447673,50.423577
206.854297,50.523384
207.559549,50.715866
208.488280,50.979717
209.565339,51.293634
210.550750,51.586742
211.765844,51.940823
212.966128,52.271435
214.055836,52.553560
214.939204,52.762178
215.403070,52.854408
217.050876,52.992814
218.609236,52.856001
220.002989,52.457266
221.110658,51.844631
221.720531,51.393777
220.894883,51.252701
219.479757,50.834134
218.083443,50.101405
216.797191,49.124346
215.712249,47.972793
214.919867,46.716578
214.892811,46.659265
214.484060,45.468990
214.365921,44.517981
216.126136,44.517981
216.299400,45.453358
216.725450,46.398951
217.386857,47.276766
217.616321,47.503929
218.945093,48.548031
220.275207,49.212808
221.630223,49.509074
222.025873,49.527555
222.630895,49.515639
222.956637,49.433216
223.113874,49.233374
223.172303,49.042041
223.227192,48.573263
223.236227,47.893769
223.213470,47.396004
222.933756,46.155300
222.301359,44.980121
221.354306,43.929257
220.591995,43.343356
219.862227,42.906339
219.224499,42.666404
218.483815,42.555467
218.297425,42.542218
217.611048,42.516114
217.179830,42.568846
216.870599,42.735691
216.607673,42.989855
216.223084,43.670815
216.126136,44.517981
214.365921,44.517981
214.336173,44.278509
214.450085,43.182632
214.826734,42.276169
214.849211,42.242331
215.615058,41.433018
216.579709,40.918286
217.690233,40.693836
218.893701,40.755366
220.137183,41.098575
221.367748,41.719164
222.532466,42.612832
222.818416,42.889832
223.877911,44.176067
224.572060,45.529131
224.926038,47.001885
224.964401,47.395955
225.032110,48.067752
225.118562,48.553828
225.205792,48.755206
225.211244,48.756084
225.406238,48.621688
225.783686,48.266743
226.267390,47.763613
226.343504,47.680816
226.443932,47.545711
229.112288,47.545711
229.281892,47.996936
229.714221,48.422271
230.089211,48.627682
230.724113,48.713644
231.543169,48.587295
232.423828,48.278462
233.146018,47.883700
233.754564,47.423294
234.339393,46.887009
234.819716,46.360108
235.114743,45.927854
235.169211,45.748474
235.007634,45.593790
234.597905,45.358400
234.338827,45.233899
233.267810,44.913124
232.174024,44.872849
231.143043,45.092039
230.260436,45.549656
229.611778,46.224665
229.496523,46.424278
229.254738,46.980807
229.121395,47.448227
229.112288,47.545711
226.443932,47.545711
227.313700,46.375623
227.909877,44.984891
228.134280,43.494938
227.989157,41.892078
227.547053,40.348693
227.132539,39.068077
226.956834,38.072669
228.721519,38.072669
228.784875,38.453374
228.953924,39.086469
229.197133,39.858465
229.303818,40.168550
229.573921,41.030931
229.778491,41.867318
229.883181,42.530948
229.889972,42.673103
229.909287,43.196886
229.997204,43.418152
230.208228,43.424896
230.333442,43.389077
230.734827,43.312897
231.396298,43.236311
232.187461,43.173900
232.336134,43.165154
233.215879,43.137544
233.866597,43.185832
234.446352,43.332434
234.973827,43.539226
235.571704,43.762261
236.028651,43.871710
236.216033,43.856078
236.316421,43.599950
236.415136,43.070996
236.486978,42.424554
236.430797,41.016714
236.025254,39.782255
235.274240,38.727487
234.181645,37.858722
233.423758,37.456599
232.463901,37.119250
231.484257,36.950978
230.555363,36.942541
229.747756,37.084698
229.131972,37.368208
228.778548,37.783828
228.721519,38.072669
226.956834,38.072669
226.953483,38.053687
227.022617,37.250669
227.352672,36.604168
227.956377,36.059330
228.633981,35.665315
229.226102,35.403046
229.797163,35.257510
230.497959,35.200952
231.163827,35.199690
232.763421,35.352311
234.143609,35.781303
235.390612,36.519540
236.039146,37.058507
237.124041,38.298181
237.861091,39.700013
238.241217,41.231383
238.255341,42.859675
238.013195,44.151231
237.677369,45.391870
238.169543,46.171523
238.514507,46.827811
238.842770,47.627484
238.978016,48.039211
239.294317,49.127246
240.992918,49.025186
242.524289,48.820615
243.723758,48.411022
244.590985,47.796656
245.125631,46.977767
245.327357,45.954604
245.329211,45.834784
245.212426,45.014556
244.906648,44.101275
244.478745,43.254190
243.995584,42.632549
243.977731,42.616140
243.710356,42.416930
243.485824,42.449535
243.155891,42.741080
243.124676,42.772228
242.453947,43.216036
241.677058,43.390941
240.903523,43.305596
240.242857,42.968654
239.864234,42.514599
239.690576,41.887431
239.691763,41.709517
241.469423,41.709517
241.496149,41.722238
241.674454,41.584691
241.714596,41.526854
241.764384,41.344190
241.737658,41.331469
241.559353,41.469016
241.519211,41.526854
241.469423,41.709517
239.691763,41.709517
239.695537,41.143626
239.874169,40.520545
240.251665,40.136543
240.866801,39.807905
241.566744,39.605226
241.925450,39.573007
242.255755,39.543771
242.371498,39.381527
242.330830,38.974472
242.306547,38.840315
242.180460,38.354976
241.945841,37.617804
241.639417,36.739736
241.384811,36.056084
240.861079,34.673374
240.467087,33.581672
240.184317,32.710434
239.994252,31.989117
239.878372,31.347176
239.818160,30.714067
239.795096,30.019247
239.794818,29.999161
239.856832,28.542861
240.108527,27.352303
240.582723,26.335325
241.312241,25.399764
241.502737,25.203227
242.577675,24.359850
243.817294,23.768689
245.145764,23.436237
246.487254,23.368987
Z" /> 
</g> 
</svg>
