<?xml version="1.0" standalone="no"?>
 <!DOCTYPE svg PUBLIC "-//W3C//DTD SVG 1.1//EN" 
 "http://www.w3.org/Graphics/SVG/1.1/DTD/svg11.dtd"> 
<svg
  xmlns:svg="http://www.w3.org/2000/svg"
  xmlns="http://www.w3.org/2000/svg"
  xmlns:xlink="http://www.w3.org/1999/xlink"
  xmlns:inkscape="http://www.inkscape.org/namespaces/inkscape"
  version="1.1"
  width="297.002200mm" height="210.007200mm" viewBox="0.000000 0.000000 297.002200 210.007200">
<title>SVG Image created as Alpenglow_FUterus_PCB-User_2.svg date 2026-03-21T20:42:44 </title>
  <desc>Image generated by PCBNEW </desc>
<g style="fill:#000000; fill-opacity:1.000000;stroke:#000000; stroke-opacity:1.000000;
stroke-linecap:round; stroke-linejoin:round;"
 transform="translate(0 0) scale(1 1)">
<path style="fill:#000000; fill-opacity:1.000000; stroke:none;fill-rule:evenodd;"
d="M 69.482962,75.564285
69.521341,75.591200
69.544028,75.646367
69.558967,75.744966
69.562474,75.826837
69.573258,75.969158
69.600670,76.111725
69.619157,76.171331
69.645459,76.265742
69.664452,76.395660
69.677213,76.571758
69.684816,76.804710
69.685260,76.827545
69.693650,77.086222
69.708951,77.284131
69.732639,77.428841
69.766190,77.527926
69.811079,77.588955
69.837190,77.607010
69.907315,77.636185
69.972196,77.639024
70.040031,77.609682
70.119014,77.542314
70.217343,77.431073
70.343212,77.270116
70.382357,77.218209
70.540070,77.020949
70.678481,76.879037
70.807099,76.785611
70.935430,76.733812
71.072985,76.716779
71.077364,76.716733
71.207467,76.728900
71.304344,76.774255
71.331966,76.796110
71.376520,76.839748
71.405839,76.889206
71.424622,76.960970
71.437565,77.071524
71.446904,77.199479
71.458831,77.344821
71.473141,77.466075
71.487547,77.545595
71.494258,77.564502
71.553565,77.603315
71.640520,77.595588
71.735981,77.544893
71.773168,77.512482
71.864357,77.413440
71.923932,77.320564
71.962586,77.210449
71.991014,77.059690
71.996158,77.024405
72.046610,76.795264
72.133266,76.604423
72.267767,76.430404
72.374048,76.327133
72.570193,76.179974
72.781938,76.082855
73.024959,76.030198
73.247360,76.016390
73.473318,76.023029
73.649755,76.052008
73.793394,76.108019
73.920958,76.195754
73.937611,76.210066
74.075398,76.367642
74.146974,76.538957
74.151577,76.721353
74.119341,76.841830
74.102795,76.891844
74.110422,76.901564
74.150046,76.867557
74.217616,76.798713
74.412519,76.638625
74.623858,76.544897
74.850511,76.517841
75.085281,76.555987
75.260313,76.632375
75.399219,76.743794
75.489516,76.878408
75.514861,76.963442
75.509521,77.134592
75.443152,77.334249
75.316367,77.560922
75.202933,77.720623
75.077803,77.888240
74.988761,78.019144
74.927668,78.129002
74.886384,78.233485
74.856771,78.348260
74.844480,78.410697
74.812129,78.702991
74.823691,78.977393
74.876896,79.223831
74.969471,79.432236
75.099142,79.592535
75.114095,79.605558
75.236196,79.690474
75.334607,79.722136
75.401755,79.699154
75.428719,79.631358
75.437099,79.508935
75.427797,79.342987
75.401715,79.144616
75.359756,78.924923
75.327802,78.789338
75.269601,78.553492
75.228952,78.371140
75.204601,78.229850
75.195294,78.117189
75.199777,78.020725
75.216797,77.928025
75.234355,77.862643
75.284754,77.727947
75.358689,77.610968
75.471710,77.486023
75.660542,77.320734
75.845533,77.212141
76.043890,77.151697
76.178518,77.134837
76.348417,77.135911
76.502256,77.169512
76.653031,77.241958
76.813740,77.359565
76.997381,77.528650
77.005628,77.536813
77.123813,77.656947
77.207271,77.754563
77.265080,77.847865
77.306318,77.955059
77.340066,78.094349
77.373843,78.275168
77.407623,78.404106
77.464725,78.563030
77.534279,78.722506
77.552976,78.760261
77.695579,79.039686
77.857695,78.923218
78.097899,78.776303
78.337365,78.686090
78.591842,78.644853
78.905092,78.644356
79.193076,78.689189
79.449640,78.775361
79.668632,78.898882
79.843898,79.055763
79.969283,79.242014
80.038636,79.453646
80.050790,79.590812
80.047551,79.695906
80.029036,79.769947
79.983628,79.838495
79.899710,79.927112
79.896494,79.930331
79.812102,80.021359
79.757814,80.104050
79.720563,80.204204
79.688727,80.340602
79.649311,80.502665
79.595045,80.689676
79.537150,80.863175
79.532752,80.875173
79.439953,81.126825
79.368333,81.323832
79.315145,81.475795
79.277641,81.592313
79.253076,81.682988
79.238702,81.757420
79.231773,81.825209
79.229542,81.895957
79.229330,81.935710
79.238190,82.098431
79.270277,82.235501
79.332798,82.355453
79.432958,82.466819
79.577962,82.578129
79.775018,82.697915
79.955387,82.795359
80.139080,82.882454
80.318541,82.951493
80.479606,82.998280
80.608108,83.018617
80.683522,83.011106
80.748961,82.955036
80.759601,82.859853
80.734924,82.773540
80.696432,82.713463
80.617446,82.616269
80.507028,82.492213
80.374239,82.351549
80.258323,82.234277
80.065446,82.038827
79.918808,81.878078
79.812430,81.742306
79.740335,81.621787
79.696546,81.506800
79.675084,81.387619
79.669938,81.277192
79.698791,81.004446
79.788343,80.763244
79.920622,80.572896
80.116801,80.394878
80.331282,80.281443
80.557848,80.233149
80.790285,80.250556
81.022377,80.334224
81.213048,80.456533
81.300454,80.503727
81.376970,80.520377
81.501042,80.542958
81.641847,80.601562
81.768927,80.682481
81.803111,80.712175
81.900000,80.839778
81.994081,81.034524
82.085644,81.297034
82.105339,81.363461
82.161700,81.525925
82.232119,81.649347
82.330442,81.748510
82.470510,81.838201
82.618457,81.911468
82.908231,82.067356
83.145322,82.246342
83.344711,82.460490
83.411052,82.549804
83.559745,82.800778
83.662941,83.059936
83.714500,83.310247
83.719289,83.404416
83.725482,83.513969
83.747585,83.572440
83.779276,83.593295
84.104421,83.734164
84.383518,83.925146
84.619598,84.168492
84.698807,84.275374
84.793814,84.392902
84.901652,84.496425
84.971082,84.546608
85.112451,84.650431
85.265251,84.796671
85.411857,84.965652
85.534644,85.137699
85.592691,85.240541
85.645208,85.359058
85.674841,85.465387
85.687528,85.588547
85.689486,85.713494
85.687190,85.840958
85.677238,85.939532
85.653754,86.030311
85.610859,86.134392
85.542675,86.272872
85.522775,86.311852
85.430317,86.505608
85.372413,86.661750
85.342873,86.797801
85.339120,86.831534
85.330512,86.996976
85.343077,87.107497
85.380887,87.174560
85.448012,87.209633
85.475544,87.215828
85.580159,87.237481
85.664566,87.258668
85.708467,87.266887
85.710202,87.265525
86.048317,87.265525
86.056471,87.380496
86.073481,87.462236
86.093041,87.490388
86.203747,87.507394
86.306796,87.460714
86.347400,87.424667
86.401543,87.360685
86.422149,87.295886
86.417309,87.200170
86.414201,87.176152
86.377665,87.029078
86.317561,86.917175
86.242599,86.849118
86.161490,86.833583
86.099964,86.863174
86.074843,86.916147
86.057719,87.013858
86.048805,87.136815
86.048317,87.265525
85.710202,87.265525
85.731477,87.248829
85.740311,87.189884
85.741692,87.090844
85.763607,86.871017
85.829923,86.702732
85.941495,86.584580
86.089555,86.517659
86.244962,86.508577
86.391473,86.562101
86.521505,86.672292
86.627477,86.833212
86.687226,86.985683
86.728116,87.171769
86.724791,87.330077
86.676423,87.485907
86.670439,87.499342
86.571188,87.654344
86.436668,87.753481
86.260814,87.800456
86.168807,87.805554
86.024367,87.814635
85.920329,87.844415
85.854621,87.882959
85.696374,87.965164
85.547485,87.979583
85.439709,87.944936
85.361433,87.889740
85.277577,87.809271
85.205673,87.723169
85.163249,87.651071
85.158441,87.629827
85.142653,87.566285
85.476369,87.566285
85.497642,87.593840
85.568317,87.640707
85.615632,87.650202
85.660778,87.639636
85.654283,87.619776
85.598131,87.586913
85.536292,87.563415
85.478663,87.549535
85.476369,87.566285
85.142653,87.566285
85.141700,87.562449
85.088536,87.537410
84.990000,87.552306
84.934059,87.569515
84.750153,87.645780
84.624656,87.734543
84.547616,87.843112
84.541018,87.858146
84.518206,87.933502
84.531907,87.982874
84.591916,88.015017
84.708027,88.038687
84.749675,88.044680
84.909617,88.080639
85.031437,88.146110
85.130247,88.253423
85.221162,88.414906
85.232134,88.438241
85.290669,88.560425
85.332637,88.631235
85.368510,88.662300
85.408755,88.665247
85.432037,88.660256
85.763192,88.603375
86.064513,88.608055
86.090389,88.611525
86.206717,88.627902
86.294924,88.639502
86.332987,88.643574
86.352498,88.614833
86.355411,88.589435
86.667212,88.589435
86.674420,88.690378
86.720535,88.749043
86.744323,88.757185
86.870796,88.774868
86.958038,88.767765
87.010756,88.746681
87.065111,88.685222
87.098041,88.588928
87.103098,88.488907
87.078222,88.421081
87.011758,88.385393
86.899763,88.370215
86.884959,88.370040
86.786751,88.375733
86.733485,88.400184
86.701979,88.454451
86.700627,88.457966
86.667212,88.589435
86.355411,88.589435
86.358696,88.560800
86.388517,88.387192
86.469862,88.243627
86.590554,88.134810
86.738415,88.065445
86.901270,88.040237
87.066940,88.063888
87.223249,88.141105
87.292771,88.199957
87.371350,88.286808
87.409506,88.362386
87.420995,88.457420
87.421314,88.487081
87.393374,88.694477
87.307100,88.869252
87.219273,88.968318
87.145600,89.027445
87.066487,89.061182
86.955945,89.078701
86.892941,89.083490
86.773794,89.093093
86.706108,89.107903
86.672837,89.135688
86.656934,89.184210
86.655404,89.191694
86.594062,89.335003
86.481078,89.455253
86.332040,89.542808
86.162535,89.588032
86.016905,89.586432
85.831351,89.538372
85.639054,89.455025
85.470157,89.350708
85.404133,89.295379
85.334850,89.232665
85.287642,89.196342
85.279250,89.192712
85.268878,89.223391
85.262627,89.301077
85.261799,89.348328
85.293049,89.548287
85.385072,89.717584
85.535285,89.851739
85.561674,89.867969
85.631406,89.906691
85.695283,89.933430
85.768237,89.950582
85.865197,89.960547
86.001092,89.965723
86.187306,89.968469
86.402729,89.973242
86.566567,89.983473
86.695697,90.001049
86.806997,90.027858
86.854841,90.043123
86.965503,90.076907
87.050043,90.095626
87.086906,90.095904
87.152789,90.080414
87.260536,90.077981
87.385086,90.086806
87.501376,90.105092
87.584343,90.131042
87.585588,90.131677
87.734609,90.244492
87.867092,90.416162
87.978068,90.637970
88.062568,90.901199
88.086849,91.011025
88.143013,91.379699
88.158737,91.712243
88.142446,91.968824
88.113020,92.225503
88.233577,92.389735
88.347161,92.582129
88.419365,92.785507
88.450145,92.987861
88.439461,93.177183
88.387271,93.341467
88.293533,93.468704
88.237479,93.510861
88.093980,93.570836
87.958702,93.565352
87.831702,93.503171
87.689919,93.368138
87.600673,93.195092
87.565488,92.991815
87.568998,92.952970
87.866928,92.952970
87.885538,93.064589
87.933100,93.160028
87.997213,93.220331
88.048866,93.231071
88.096093,93.213702
88.121266,93.166725
88.133526,93.071666
88.134437,93.058124
88.129915,92.957957
88.108705,92.846466
88.076521,92.739729
88.039078,92.653825
88.002093,92.604831
87.973674,92.605853
87.936130,92.673096
87.899593,92.777163
87.873657,92.886862
87.866928,92.952970
87.568998,92.952970
87.585886,92.766092
87.647760,92.563155
87.692811,92.435256
87.711857,92.345381
87.705747,92.308509
87.641629,92.269909
87.532956,92.227059
87.402808,92.186930
87.274262,92.156496
87.170395,92.142731
87.156515,92.142555
86.958005,92.170735
86.802311,92.247095
86.711232,92.342788
86.656411,92.444178
86.631502,92.548434
86.639185,92.663030
86.682143,92.795438
86.763056,92.953134
86.884605,93.143589
87.049471,93.374279
87.110699,93.456333
87.240739,93.634549
87.365252,93.814704
87.474109,93.981457
87.557180,94.119464
87.592067,94.185474
87.653417,94.309036
87.700093,94.384045
87.745316,94.424569
87.802308,94.444680
87.842513,94.451987
88.065050,94.520159
88.282005,94.646619
88.485615,94.821133
88.668118,95.033465
88.821751,95.273384
88.938753,95.530653
89.011361,95.795040
89.032380,96.020736
89.049687,96.105694
89.107711,96.200744
89.183450,96.288404
89.362617,96.519178
89.474757,96.758882
89.521266,97.012205
89.503542,97.283833
89.494378,97.331520
89.414484,97.601480
89.293668,97.825910
89.124622,98.013755
88.900037,98.173959
88.734905,98.260858
88.617376,98.318967
88.526025,98.368347
88.476980,98.400160
88.473283,98.404221
88.477946,98.446296
88.504184,98.534463
88.546754,98.651721
88.559925,98.685061
88.637622,98.909421
88.690952,99.128695
88.716598,99.325136
88.711238,99.480998
88.710053,99.487640
88.662913,99.600581
88.577492,99.700203
88.474089,99.767264
88.396799,99.784615
88.299421,99.754584
88.192646,99.673415
88.090242,99.554497
88.005975,99.411215
88.000491,99.399237
87.942540,99.214305
87.915676,99.003145
87.917779,98.897669
88.211652,98.897669
88.221766,99.006020
88.244975,99.128192
88.278293,99.247157
88.318733,99.345885
88.348141,99.392010
88.392065,99.435046
88.412165,99.423949
88.411349,99.353745
88.404178,99.296153
88.380130,99.164559
88.346833,99.031460
88.309649,98.913633
88.273938,98.827859
88.245060,98.790916
88.242658,98.790553
88.217620,98.820170
88.211652,98.897669
87.917779,98.897669
87.919940,98.789319
87.955368,98.596386
87.998990,98.485893
88.078813,98.335484
87.947162,98.144385
87.811812,97.983358
87.657931,97.858496
87.496820,97.774472
87.339780,97.735964
87.198111,97.747647
87.104242,97.795635
87.053825,97.841529
87.025475,97.892624
87.012945,97.969454
87.009988,98.092552
87.009978,98.105437
87.039771,98.376482
87.129736,98.670102
87.280745,98.988857
87.356510,99.120766
87.488343,99.348881
87.580826,99.529699
87.636946,99.669841
87.659690,99.775930
87.660507,99.794686
87.688302,99.888387
87.771136,100.018319
87.838227,100.103100
87.974638,100.292465
88.109864,100.524803
88.231501,100.775457
88.327147,101.019767
88.367443,101.155208
88.406670,101.431483
88.385588,101.693993
88.308088,101.934615
88.178057,102.145228
87.999384,102.317709
87.775959,102.443935
87.744546,102.456256
87.623813,102.492497
87.464924,102.528271
87.298007,102.556985
87.261934,102.561861
87.074303,102.585991
86.945565,102.604359
86.866600,102.619830
86.828290,102.635267
86.821517,102.653536
86.837161,102.677500
86.849537,102.691406
86.943488,102.831310
87.019045,103.011970
87.066629,103.206155
87.078199,103.341461
87.074795,103.465763
87.058060,103.548647
87.018925,103.617114
86.964208,103.680952
86.885534,103.756793
86.808938,103.797570
86.703984,103.817322
86.659548,103.821487
86.452806,103.817982
86.276890,103.764483
86.108977,103.653678
86.092472,103.639786
85.946972,103.477796
85.847398,103.288173
85.796641,103.085311
85.797140,102.979484
86.118750,102.979484
86.145647,103.173956
86.223335,103.330196
86.347311,103.441307
86.449277,103.485672
86.587302,103.515507
86.690811,103.508284
86.715811,103.500111
86.754479,103.451699
86.768890,103.358015
86.759490,103.237738
86.726722,103.109547
86.705232,103.055923
86.641020,102.940872
86.556939,102.821600
86.529012,102.787954
86.452400,102.709720
86.393063,102.677631
86.330301,102.680753
86.327404,102.681462
86.211121,102.730223
86.144727,102.812817
86.119599,102.941557
86.118750,102.979484
85.797140,102.979484
85.797592,102.883608
85.853142,102.697458
85.890165,102.632281
85.987222,102.485607
85.838748,102.508887
85.645867,102.558784
85.481053,102.639306
85.360140,102.741541
85.319480,102.801079
85.272985,102.954862
85.264443,103.159067
85.293242,103.407437
85.358771,103.693713
85.428974,103.921636
85.505364,104.166417
85.551473,104.370124
85.568601,104.552530
85.558052,104.733407
85.521126,104.932530
85.500961,105.015096
85.375302,105.394899
85.204283,105.735431
85.112019,105.875322
85.008678,106.004795
84.924095,106.074680
84.850542,106.088621
84.780289,106.050260
84.767217,106.037902
84.725834,105.983063
84.720850,105.925058
84.755790,105.848429
84.834178,105.737718
84.836322,105.734908
84.966306,105.532461
85.081624,105.292443
85.174489,105.036533
85.237112,104.786406
85.261703,104.563738
85.261799,104.550799
85.250279,104.456737
85.218645,104.316134
85.171292,104.146473
85.120237,103.987402
85.053370,103.781411
85.008621,103.614425
84.980894,103.462527
84.965091,103.301798
84.961648,103.243212
84.956773,103.033433
84.970301,102.872785
85.007161,102.743180
85.072280,102.626531
85.159379,102.517382
85.337503,102.362044
85.556092,102.256941
85.819748,102.200093
85.916053,102.191668
86.069351,102.186807
86.182896,102.196872
86.284584,102.225669
86.343727,102.250059
86.420214,102.281743
86.488083,102.301039
86.564336,102.309053
86.665979,102.306895
86.810013,102.295672
86.906342,102.286713
87.232995,102.247471
87.499768,102.197682
87.703706,102.137997
87.812907,102.087560
87.888165,102.021951
87.965749,101.921458
88.001032,101.861239
88.068957,101.656334
88.081290,101.419496
88.039243,101.157174
87.944029,100.875817
87.796859,100.581875
87.744224,100.494544
87.620022,100.296107
87.525835,100.494544
87.415487,100.673215
87.265272,100.843884
87.097421,100.983184
87.012055,101.034688
86.848044,101.092601
86.669157,101.112977
86.504568,101.093585
86.456222,101.077192
86.337959,101.010586
86.209584,100.912150
86.093334,100.801347
86.011445,100.697639
86.000611,100.678419
85.938806,100.487867
85.936183,100.418761
86.241236,100.418761
86.244695,100.440052
86.293547,100.547253
86.385638,100.654532
86.499216,100.740145
86.580423,100.775698
86.718935,100.792189
86.858223,100.757217
86.982374,100.689902
87.103670,100.581592
87.210622,100.431777
87.285968,100.267446
87.307540,100.181529
87.315038,100.098454
87.291044,100.051870
87.219647,100.014079
87.208716,100.009478
86.980732,99.933307
86.769219,99.899300
86.584666,99.907504
86.437560,99.957966
86.374351,100.005789
86.295811,100.123367
86.248058,100.272348
86.241236,100.418761
85.936183,100.418761
85.930936,100.280485
85.974076,100.076249
86.065304,99.895133
86.125990,99.821583
86.307728,99.681187
86.521609,99.600834
86.768096,99.580433
87.047652,99.619893
87.093349,99.631199
87.201105,99.656917
87.278645,99.671011
87.306239,99.671169
87.294779,99.638740
87.254027,99.561272
87.191101,99.451812
87.142117,99.370402
86.941125,99.010663
86.798462,98.683350
86.713441,98.386009
86.685373,98.116182
86.713570,97.871415
86.717546,97.855491
86.794176,97.674850
86.912836,97.541108
87.064948,97.454916
87.241934,97.416925
87.435216,97.427786
87.636218,97.488151
87.836361,97.598671
88.023484,97.756350
88.116214,97.856154
88.195887,97.952022
88.237263,98.010728
88.283735,98.076084
88.319673,98.104922
88.320788,98.104992
88.379643,98.087777
88.478604,98.042511
88.600466,97.978769
88.728025,97.906123
88.844077,97.834148
88.931416,97.772416
88.955337,97.751904
89.071817,97.600305
89.151613,97.412560
89.193469,97.205395
89.196127,96.995539
89.158329,96.799718
89.078818,96.634659
89.042748,96.589278
89.007786,96.557563
88.978184,96.561829
88.939915,96.610915
88.898374,96.680250
88.783119,96.842021
88.657968,96.941985
88.513053,96.986891
88.444173,96.990957
88.326886,96.981319
88.240455,96.943221
88.174620,96.888123
88.056808,96.755779
87.993087,96.623803
87.973794,96.467359
87.974994,96.436388
88.278789,96.436388
88.291000,96.545575
88.335887,96.615404
88.397352,96.656770
88.487839,96.673176
88.572626,96.623180
88.637828,96.528890
88.684251,96.403274
88.682338,96.306794
88.632919,96.248869
88.612474,96.241307
88.463576,96.222432
88.356361,96.254936
88.294080,96.336919
88.278789,96.436388
87.974994,96.436388
87.977155,96.380629
87.990568,96.258045
88.016710,96.176542
88.067480,96.108652
88.114753,96.062989
88.265901,95.958415
88.430408,95.901477
88.587352,95.899339
88.590769,95.900004
88.661265,95.906536
88.687158,95.879410
88.689600,95.848215
88.667228,95.712222
88.606886,95.546488
88.518739,95.370089
88.412947,95.202102
88.299674,95.061604
88.240477,95.005141
88.152536,94.939975
88.046768,94.873603
87.944185,94.817897
87.865799,94.784730
87.842585,94.780304
87.827403,94.811565
87.815777,94.892305
87.811063,94.979704
87.772991,95.210634
87.674955,95.424744
87.525504,95.607595
87.370091,95.724370
87.213710,95.793671
87.077519,95.801630
86.950066,95.747719
86.891675,95.702401
86.783936,95.564821
86.722098,95.391997
86.716439,95.311958
87.025377,95.311958
87.066318,95.431160
87.082934,95.453750
87.124975,95.491289
87.170873,95.490075
87.238723,95.446154
87.282803,95.410086
87.405188,95.271498
87.483284,95.107845
87.509883,94.938519
87.496374,94.835459
87.472118,94.744762
87.318173,94.822381
87.188052,94.915660
87.092025,95.038693
87.035873,95.175964
87.025377,95.311958
86.716439,95.311958
86.708646,95.201738
86.746062,95.011853
86.783314,94.925117
86.870225,94.800978
86.994900,94.673525
87.132049,94.566359
87.221431,94.516272
87.302759,94.474158
87.348847,94.438207
87.352758,94.429510
87.331203,94.356824
87.268902,94.237417
87.169400,94.076899
87.036240,93.880877
86.872967,93.654960
86.810029,93.570749
86.622523,93.311696
86.482139,93.091536
86.386329,92.901907
86.332548,92.734448
86.318249,92.580795
86.340885,92.432587
86.397910,92.281462
86.409881,92.256802
86.535949,92.075436
86.705189,91.943135
86.911021,91.861800
87.146864,91.833331
87.406135,91.859628
87.601273,91.912738
87.832650,91.991589
87.832650,91.657009
87.819865,91.365993
87.783412,91.094623
87.726145,90.854572
87.650917,90.657511
87.560584,90.515113
87.550815,90.504313
87.487149,90.444296
87.452398,90.437517
87.441224,90.488729
87.447661,90.596184
87.450256,90.807790
87.410123,90.977076
87.323807,91.117915
87.315352,91.127744
87.190140,91.232827
87.059263,91.271068
86.925756,91.241644
86.914734,91.236178
86.778200,91.135403
86.657802,90.993102
86.575026,90.836100
86.562351,90.796303
86.543574,90.702942
86.877252,90.702942
86.921319,90.818481
86.943910,90.850572
87.020144,90.923180
87.083311,90.935583
87.126283,90.886669
87.146978,90.770227
87.135037,90.643699
87.094308,90.541894
87.087103,90.532295
87.038287,90.482877
86.994420,90.484946
86.949991,90.513303
86.886916,90.595304
86.877252,90.702942
86.543574,90.702942
86.542180,90.696012
86.548348,90.611071
86.584239,90.506515
86.592271,90.487273
86.661366,90.323728
86.587156,90.307796
86.525719,90.300955
86.411443,90.293760
86.260038,90.287019
86.087213,90.281540
86.067333,90.281043
85.872911,90.274690
85.732073,90.265182
85.629852,90.250370
85.551284,90.228102
85.483066,90.197110
85.349965,90.105924
85.212488,89.977835
85.091236,89.834810
85.006810,89.698821
84.998673,89.680570
84.955123,89.509359
84.948962,89.315637
84.979282,89.130179
85.017931,89.029011
85.030554,89.004267
85.546944,89.004267
85.597527,89.057814
85.684919,89.117240
85.794935,89.174860
85.913390,89.222988
86.026098,89.253936
86.095447,89.261268
86.209160,89.246103
86.292871,89.207259
86.296010,89.204538
86.345723,89.128952
86.358696,89.069884
86.348793,89.022022
86.308529,88.989435
86.222065,88.961872
86.174674,88.950778
86.058054,88.933332
85.919707,88.925107
85.779346,88.925676
85.656682,88.934617
85.571425,88.951504
85.547355,88.964286
85.546944,89.004267
85.030554,89.004267
85.089420,88.888881
85.004554,88.706586
84.958406,88.600537
84.927445,88.516149
84.919354,88.480708
84.898018,88.440815
84.829566,88.404026
84.706355,88.367206
84.568343,88.336654
84.398473,88.277572
84.281597,88.185467
84.215783,88.068340
84.199097,87.934190
84.229606,87.791018
84.305375,87.646824
84.424472,87.509607
84.584963,87.387368
84.784915,87.288107
84.825367,87.273150
85.004714,87.210140
85.022391,86.907431
85.032632,86.770786
85.048998,86.660120
85.077347,86.555186
85.123539,86.435736
85.193434,86.281521
85.219489,86.226317
85.310907,86.023311
85.368338,85.863414
85.393337,85.731111
85.387455,85.610885
85.352245,85.487221
85.304540,85.376521
85.210382,85.176659
85.210382,85.547911
85.208068,85.727173
85.199321,85.856990
85.181435,85.956368
85.151704,86.044318
85.133943,86.084788
84.984418,86.328603
84.780536,86.532767
84.525261,86.695239
84.221553,86.813981
83.998237,86.866993
83.754608,86.882973
83.507625,86.847260
83.273108,86.765676
83.066882,86.644040
82.904770,86.488174
82.880813,86.455958
82.828218,86.374748
82.797080,86.302091
82.781903,86.215302
82.777520,86.100351
83.073173,86.100351
83.105241,86.233379
83.109406,86.241499
83.213969,86.367066
83.368340,86.460970
83.560444,86.521057
83.778209,86.545174
84.009561,86.531165
84.242428,86.476878
84.304735,86.454752
84.538962,86.335019
84.716003,86.177501
84.835900,85.982157
84.849516,85.948105
84.885487,85.844078
84.905987,85.768817
84.907406,85.741872
84.872268,85.748835
84.800939,85.783080
84.770121,85.800573
84.606952,85.860719
84.413122,85.874773
84.208213,85.843283
84.037822,85.780074
83.888265,85.685195
83.765437,85.566021
83.682031,85.437832
83.650741,85.315906
83.650733,85.314154
83.638775,85.242769
83.598558,85.220871
83.523566,85.248536
83.419673,85.316802
83.302019,85.432005
83.202775,85.585150
83.127708,85.759049
83.082585,85.936512
83.073173,86.100351
82.777520,86.100351
82.777190,86.091694
82.777002,86.027483
82.781663,85.866037
82.799065,85.743167
82.835070,85.629238
82.873006,85.542104
83.021456,85.298927
83.114989,85.201578
83.959235,85.201578
83.983124,85.327268
84.060132,85.424707
84.176239,85.494767
84.321725,85.539566
84.475232,85.549556
84.613995,85.525885
84.715250,85.469702
84.717547,85.467449
84.761222,85.399065
84.764084,85.347014
84.711802,85.291083
84.605580,85.234555
84.459697,85.183642
84.305906,85.147683
84.148833,85.121529
84.046969,85.113751
83.989010,85.126105
83.963655,85.160349
83.959235,85.201578
83.114989,85.201578
83.218246,85.094109
83.451835,84.937822
83.650733,84.856584
83.720748,84.819848
83.764993,84.787755
84.275781,84.787755
84.340403,84.819811
84.443409,84.848640
84.576694,84.879751
84.656782,84.897224
84.697221,84.903062
84.711561,84.899270
84.713351,84.888569
84.698955,84.846099
84.677867,84.802874
84.636620,84.759527
84.561216,84.740063
84.480769,84.737096
84.346797,84.743913
84.278190,84.761628
84.275781,84.787755
83.764993,84.787755
83.816235,84.750587
83.899974,84.678703
84.017152,84.578973
84.132030,84.506109
84.273077,84.443442
84.350688,84.414832
84.383338,84.396816
84.381866,84.367826
84.340633,84.314516
84.282132,84.252516
84.187757,84.170121
84.065995,84.084228
83.935580,84.005841
83.815250,83.945967
83.723742,83.915611
83.705641,83.913899
83.665504,83.942783
83.613178,84.017518
83.572655,84.095423
83.449010,84.312992
83.299683,84.489420
83.134023,84.615941
82.961381,84.683789
82.941086,84.687501
82.849578,84.695236
82.779664,84.675585
82.700738,84.618230
82.678526,84.599002
82.561129,84.456069
82.514976,84.338372
82.487820,84.248606
82.462783,84.194895
82.454315,84.188123
82.412117,84.198689
82.325828,84.226107
82.236434,84.256679
82.046643,84.310223
81.894430,84.320947
81.764262,84.289377
81.731235,84.273854
81.591682,84.165160
81.559376,84.116640
82.794593,84.116640
82.813520,84.243904
82.815207,84.252395
82.855557,84.335450
82.927668,84.360612
83.025146,84.326944
83.077520,84.290832
83.136813,84.227347
83.201356,84.133352
83.260919,84.027859
83.305274,83.929880
83.324192,83.858426
83.320875,83.838520
83.273333,83.822161
83.180352,83.835267
83.056685,83.874479
82.939477,83.925333
82.850160,83.976860
82.804336,84.034127
82.794593,84.116640
81.559376,84.116640
81.488420,84.010073
81.422224,83.820837
81.393869,83.609698
81.396059,83.562568
81.717986,83.562568
81.725018,83.707669
81.743102,83.824227
81.760583,83.872985
81.842846,83.956905
81.965604,83.988559
82.124957,83.967919
82.317004,83.894958
82.353125,83.877093
82.489103,83.807722
82.468021,83.560878
82.442063,83.323111
82.409103,83.146511
82.367136,83.023871
82.314160,82.947984
82.293072,82.931413
82.177496,82.893156
82.051406,82.914167
81.926259,82.988774
81.813513,83.111305
81.762530,83.194061
81.736811,83.281959
81.721940,83.412730
81.717986,83.562568
81.396059,83.562568
81.404129,83.388902
81.453779,83.170693
81.543594,82.967318
81.639835,82.829448
81.775057,82.709669
81.937981,82.626572
82.112102,82.583331
82.280916,82.583120
82.427920,82.629114
82.484154,82.667064
82.618939,82.823681
82.708521,83.023359
82.739102,83.169157
82.756588,83.308498
82.774466,83.451669
82.778270,83.482259
82.797034,83.633344
82.983082,83.567954
83.111974,83.530612
83.237216,83.506940
83.294733,83.502563
83.420337,83.502563
83.399490,83.326550
83.333379,83.052864
83.205154,82.797976
83.020202,82.568708
82.783911,82.371882
82.531999,82.228203
82.282992,82.095101
82.094007,81.955088
81.956512,81.800845
81.881584,81.670427
81.834951,81.577214
81.805690,81.540997
81.786920,81.554652
81.782248,81.567593
81.711987,81.728381
81.608032,81.846785
81.460262,81.930371
81.258562,81.986704
81.209949,81.995520
80.979676,82.020021
80.762626,82.016502
80.577220,81.986187
80.469420,81.946297
80.380837,81.881341
80.294132,81.788921
80.275333,81.763195
80.206967,81.605388
80.189633,81.420737
80.193036,81.401752
80.508596,81.401752
80.513909,81.534801
80.572538,81.626020
80.688496,81.681217
80.704500,81.685240
80.785975,81.703687
80.848376,81.712658
80.913937,81.712114
81.004887,81.702012
81.128626,81.684455
81.254351,81.662009
81.355936,81.636122
81.411402,81.612395
81.411419,81.612381
81.451918,81.537063
81.455641,81.419629
81.425218,81.274064
81.363280,81.114351
81.293932,80.987592
81.237834,80.906244
81.188436,80.870991
81.119413,80.867849
81.077823,80.872797
80.902349,80.925223
80.742586,81.025425
80.613426,81.159565
80.529765,81.313802
80.508596,81.401752
80.193036,81.401752
80.224013,81.228930
80.254092,81.150855
80.325280,81.034924
80.432109,80.906933
80.555401,80.786263
80.675982,80.692296
80.745811,80.653882
80.805932,80.617031
80.802064,80.586174
80.738717,80.564524
80.620401,80.555292
80.607195,80.555180
80.411036,80.585731
80.243740,80.673884
80.112621,80.812161
80.024992,80.993085
79.989299,81.187049
79.988451,81.319983
80.008707,81.436698
80.056613,81.548399
80.138715,81.666293
80.261558,81.801588
80.431687,81.965488
80.458422,81.990222
80.685084,82.210689
80.855850,82.403941
80.974874,82.575837
81.046311,82.732237
81.072625,82.856360
81.060038,83.027205
80.990310,83.165030
80.868989,83.264562
80.701623,83.320527
80.573177,83.331045
80.396234,83.308932
80.184433,83.247247
79.952939,83.153297
79.716915,83.034391
79.491525,82.897836
79.291934,82.750941
79.199152,82.668870
79.074289,82.533496
78.991697,82.398617
78.944017,82.244965
78.923888,82.053270
78.921852,81.942914
78.922426,81.842643
78.925947,81.756439
78.935088,81.674267
78.952520,81.586093
78.980917,81.481881
79.022951,81.351598
79.081294,81.185208
79.158620,80.972676
79.236816,80.760323
79.291433,80.605450
79.338641,80.459243
79.371592,80.343488
79.381005,80.301545
79.393060,80.217589
79.384175,80.185515
79.349113,80.190470
79.342690,80.192929
79.277945,80.207638
79.168582,80.222496
79.040342,80.234124
78.837340,80.231685
78.680475,80.188944
78.557041,80.100776
78.484008,80.009707
78.419127,79.860595
78.416596,79.733639
78.737436,79.733639
78.746008,79.823713
78.792852,79.878169
78.817535,79.892366
78.874258,79.919674
78.923974,79.932732
78.986831,79.931997
79.082976,79.917928
79.179728,79.900600
79.293000,79.876440
79.378502,79.851726
79.412045,79.835685
79.415953,79.791024
79.394024,79.707719
79.371329,79.650391
79.283445,79.512212
79.172636,79.427037
79.050752,79.397408
78.929640,79.425865
78.821152,79.514950
78.809493,79.529903
78.759606,79.630315
78.737436,79.733639
78.416596,79.733639
78.415836,79.695502
78.474263,79.508328
78.495438,79.463531
78.613042,79.281550
78.756232,79.161000
78.930616,79.097729
79.002554,79.088137
79.206513,79.102809
79.387842,79.181439
79.544421,79.322570
79.674129,79.524744
79.691995,79.562110
79.746404,79.680566
79.731061,79.536490
79.681108,79.361556
79.571400,79.217373
79.401311,79.103486
79.170215,79.019442
78.959113,78.976125
78.684761,78.957492
78.429575,78.986405
78.204981,79.060044
78.022408,79.175592
77.977213,79.218346
77.882948,79.316738
78.132549,79.767298
78.303510,80.092384
78.430693,80.372969
78.516312,80.615390
78.562579,80.825985
78.571710,81.011091
78.571051,81.022708
78.543285,81.210116
78.486416,81.337512
78.398368,81.407888
78.291794,81.424982
78.207582,81.429527
78.166712,81.460766
78.148198,81.518607
78.090160,81.638073
77.978849,81.750721
77.829513,81.847439
77.657398,81.919117
77.477749,81.956642
77.409504,81.960053
77.203314,81.927120
77.001529,81.833251
76.814076,81.685845
76.650879,81.492301
76.549080,81.318701
76.494609,81.200954
76.461435,81.102531
76.444269,80.998080
76.437821,80.862250
76.437010,80.783051
76.739585,80.783051
76.770811,81.025544
76.850265,81.239221
76.973492,81.416482
77.136036,81.549726
77.333442,81.631355
77.422666,81.648042
77.470003,81.642362
77.558002,81.623953
77.606143,81.612318
77.751360,81.546388
77.845619,81.434618
77.888843,81.277118
77.891901,81.212677
77.886116,81.131161
77.862597,81.057424
77.812332,80.973109
77.726314,80.859856
77.706853,80.835619
77.596012,80.705272
77.458556,80.553715
77.317952,80.406552
77.265361,80.353939
77.121172,80.220739
77.010983,80.144197
76.928000,80.126543
76.865428,80.170003
76.816472,80.276807
76.774337,80.449184
76.761042,80.519344
76.739585,80.783051
76.437010,80.783051
76.436994,80.781506
76.452559,80.487907
76.503561,80.247911
76.591840,80.055362
76.691269,79.930615
76.781181,79.850332
76.858925,79.811529
76.953172,79.800619
76.965768,79.800539
77.110898,79.822971
77.205455,79.868373
77.300719,79.936207
77.310564,79.833748
77.629342,79.833748
77.637589,79.922558
77.667197,80.001476
77.728365,80.115779
77.810560,80.246741
77.859833,80.317593
77.954491,80.456784
78.039379,80.596054
78.101457,80.713411
78.119007,80.754644
78.178605,80.896436
78.225285,80.972398
78.255185,80.984656
78.264440,80.935334
78.249188,80.826558
78.217419,80.700504
78.186150,80.613213
78.133798,80.489772
78.066408,80.342282
77.990022,80.182842
77.910684,80.023551
77.834440,79.876509
77.767331,79.753815
77.715402,79.667569
77.684698,79.629869
77.682261,79.629149
77.654212,79.659498
77.635413,79.735313
77.629342,79.833748
77.310564,79.833748
77.316629,79.770627
77.343041,79.633580
77.389970,79.490172
77.408313,79.448519
77.484086,79.291993
77.326671,79.000856
77.169255,78.709718
77.013127,78.876632
76.835171,79.035623
76.656813,79.136800
76.484581,79.179590
76.325001,79.163421
76.184603,79.087722
76.074186,78.958934
76.032597,78.880088
76.012400,78.800423
76.009424,78.694704
76.010604,78.673768
76.315241,78.673768
76.332853,78.786719
76.375227,78.838009
76.431406,78.865677
76.481699,78.868216
76.550870,78.842656
76.619318,78.808734
76.764427,78.702414
76.894485,78.546296
76.987911,78.373120
77.019441,78.261477
77.014591,78.145962
76.971746,78.002558
76.961184,77.975235
76.907077,77.900678
76.832137,77.881135
76.743408,77.908991
76.647934,77.976628
76.552758,78.076428
76.464925,78.200776
76.391477,78.342053
76.339459,78.492642
76.315914,78.644927
76.315241,78.673768
76.010604,78.673768
76.014788,78.599511
76.064988,78.328592
76.176905,78.078509
76.353310,77.843629
76.420651,77.773879
76.616677,77.581092
76.462417,77.504051
76.279124,77.447786
76.089461,77.459291
75.892442,77.538675
75.838137,77.571579
75.706416,77.669466
75.611966,77.774038
75.553040,77.894829
75.527894,78.041368
75.534781,78.223188
75.571954,78.449821
75.630785,78.703643
75.700311,79.002310
75.743553,79.246162
75.761073,79.443461
75.753436,79.602472
75.721205,79.731459
75.703657,79.772203
75.604751,79.918275
75.483390,80.005845
75.346271,80.038458
75.200093,80.019658
75.051556,79.952992
74.907357,79.842004
74.774195,79.690240
74.658769,79.501244
74.567778,79.278563
74.532786,79.152519
74.506933,78.966650
74.502719,78.742733
74.518424,78.507170
74.552324,78.286367
74.600650,78.112094
74.653085,78.001381
74.735911,77.858370
74.836399,77.704057
74.912403,77.597924
75.064713,77.378943
75.162566,77.201239
75.205924,77.064894
75.199653,76.980917
75.139006,76.915482
75.020051,76.872124
74.850157,76.853256
74.807836,76.852631
74.686689,76.856967
74.605356,76.876674
74.535303,76.921796
74.486151,76.965872
74.381256,77.088333
74.339137,77.206501
74.356697,77.335075
74.391167,77.416548
74.449252,77.563084
74.457575,77.684521
74.416450,77.802588
74.397181,77.836261
74.287765,77.969480
74.161609,78.036670
74.030838,78.041064
73.879986,77.985085
73.763386,77.877404
73.683417,77.727015
73.642457,77.542913
73.642758,77.395942
73.953616,77.395942
73.958426,77.522643
73.976581,77.621645
73.985543,77.643278
74.037331,77.697768
74.094429,77.705268
74.130973,77.666733
74.126238,77.611189
74.095782,77.525078
74.082412,77.496709
74.039150,77.378218
74.016862,77.254766
74.016205,77.239624
74.011940,77.162774
74.000988,77.147938
73.984337,77.178272
73.962227,77.271249
73.953616,77.395942
73.642758,77.395942
73.642884,77.334092
73.687078,77.109545
73.743111,76.953004
73.805816,76.795490
73.838168,76.682491
73.842678,76.598358
73.821858,76.527441
73.813947,76.511719
73.742399,76.442912
73.619332,76.389324
73.460501,76.352975
73.281659,76.335885
73.098561,76.340073
72.926961,76.367561
72.855516,76.388835
72.641245,76.491855
72.481561,76.632412
72.372210,76.815958
72.308935,77.047947
72.301708,77.098449
72.246265,77.346064
72.143425,77.552400
71.985535,77.732039
71.955157,77.758847
71.792777,77.875376
71.646551,77.929893
71.508320,77.924484
71.427075,77.893963
71.289581,77.790183
71.196659,77.636276
71.147742,77.431023
71.139262,77.275714
71.137918,77.146471
71.130878,77.071235
71.113635,77.035469
71.081677,77.024635
71.061194,77.024021
70.995417,77.033671
70.928056,77.067598
70.850937,77.133267
70.755891,77.238144
70.634743,77.389694
70.574326,77.468776
70.429575,77.653313
70.311227,77.787401
70.210312,77.879316
70.117857,77.937335
70.033526,77.967646
69.894705,77.969173
69.750388,77.913514
69.613410,77.809541
69.496601,77.666129
69.437291,77.555330
69.412008,77.482540
69.394012,77.389692
69.382027,77.264188
69.374780,77.093435
69.371401,76.904048
69.366218,76.667956
69.356023,76.489182
69.339786,76.356601
69.316475,76.259092
69.309793,76.239887
69.275171,76.109091
69.257006,75.960432
69.255359,75.814258
69.270292,75.690920
69.301869,75.610766
69.307838,75.603932
69.394045,75.555398
Z" /> 
</g> 
</svg>
