<?xml version="1.0" standalone="no"?>
 <!DOCTYPE svg PUBLIC "-//W3C//DTD SVG 1.1//EN" 
 "http://www.w3.org/Graphics/SVG/1.1/DTD/svg11.dtd"> 
<svg
  xmlns:svg="http://www.w3.org/2000/svg"
  xmlns="http://www.w3.org/2000/svg"
  xmlns:xlink="http://www.w3.org/1999/xlink"
  xmlns:inkscape="http://www.inkscape.org/namespaces/inkscape"
  version="1.1"
  width="297.002200mm" height="210.007200mm" viewBox="0.000000 0.000000 297.002200 210.007200">
<title>SVG Image created as Alpenglow_FUterus_PCB-User_5.svg date 2026-03-21T23:52:58 </title>
  <desc>Image generated by PCBNEW </desc>
<g style="fill:#000000; fill-opacity:1.000000;stroke:#000000; stroke-opacity:1.000000;
stroke-linecap:round; stroke-linejoin:round;"
 transform="translate(0 0) scale(1 1)">
<path style="fill:#000000; fill-opacity:1.000000; stroke:none;fill-rule:evenodd;"
d="M 239.929997,80.438610
240.202364,80.496148
240.424823,80.575135
240.467203,80.596950
240.596445,80.691779
240.726514,80.821751
240.834072,80.959199
240.895781,81.076453
240.902412,81.112912
240.945193,81.155878
241.056638,81.215503
241.192181,81.271061
241.512930,81.433293
241.793305,81.662976
242.008778,81.938577
242.059961,82.032837
242.129756,82.212625
242.191287,82.435049
242.238069,82.667259
242.263615,82.876403
242.261440,83.029630
242.259182,83.041884
242.236483,83.178294
242.208235,83.394271
242.176793,83.670863
242.155635,83.875408
242.152158,84.168452
242.210347,84.456349
242.213942,84.468404
242.302185,84.761333
242.326620,84.628769
242.907666,84.628769
242.921571,84.855130
242.970211,84.990350
243.052756,85.033746
243.168376,84.984636
243.251934,84.911828
243.346295,84.771629
243.373229,84.594664
243.362281,84.406033
243.322819,84.296716
243.244916,84.248956
243.176327,84.242461
243.035097,84.274937
242.948414,84.377981
242.910416,84.560025
242.907666,84.628769
242.326620,84.628769
242.341838,84.546212
242.410853,84.320041
242.525555,84.090015
242.664267,83.894981
242.753776,83.807918
242.947629,83.710231
243.178429,83.673281
243.400867,83.703014
243.440976,83.717740
243.575509,83.801767
243.711541,83.928221
243.749691,83.974106
243.826709,84.086926
243.869568,84.194130
243.887728,84.331685
243.890774,84.510575
243.883287,84.717795
243.856538,84.865615
243.801246,84.992960
243.759240,85.062294
243.664733,85.200200
243.578175,85.312359
243.550873,85.342583
243.505752,85.399826
243.535145,85.431211
243.613156,85.451590
243.767826,85.459789
243.992767,85.437438
244.265431,85.387931
244.563266,85.314660
244.608637,85.301853
244.991248,85.228916
245.336536,85.242955
245.655046,85.344477
245.672957,85.353079
245.932456,85.518158
246.153572,85.731891
246.320678,85.973428
246.418149,86.221920
246.436766,86.372213
246.479132,86.440228
246.587221,86.516384
246.639610,86.542532
246.762841,86.608725
246.939966,86.717367
247.145344,86.852238
247.314713,86.969512
247.665458,87.201947
247.963182,87.360593
248.217466,87.448136
248.437889,87.467267
248.634032,87.420673
248.734902,87.368086
248.794305,87.323909
248.791036,87.283397
248.717326,87.219412
248.685486,87.195448
248.421329,86.959198
248.234850,86.707970
248.133722,86.453746
248.117198,86.308017
248.128405,86.252808
248.670878,86.252808
248.672769,86.343763
248.736984,86.476795
248.786833,86.548011
248.893471,86.668186
248.965501,86.709332
248.995681,86.670371
248.983994,86.577384
248.922957,86.410598
248.839417,86.283230
248.751582,86.221351
248.733763,86.219115
248.670878,86.252808
248.128405,86.252808
248.155217,86.120721
248.254105,85.930150
248.391111,85.769888
248.543480,85.673519
248.548123,85.671942
248.758252,85.650690
248.968386,85.713346
249.165186,85.845894
249.335314,86.034315
249.465429,86.264591
249.542194,86.522703
249.556549,86.731701
249.547971,86.974076
249.859427,86.949075
250.198289,86.885066
250.504469,86.743904
250.747850,86.564043
250.873424,86.432136
250.961161,86.274314
251.020047,86.067335
251.059068,85.787960
251.062733,85.749660
251.106204,85.435484
251.175972,85.192113
251.280275,84.993180
251.314048,84.945510
251.507812,84.719830
251.700042,84.572255
251.904990,84.487459
252.031442,84.442000
252.127276,84.373789
252.219833,84.258346
252.297453,84.136099
252.572418,83.754406
252.890828,83.435521
253.236258,83.195122
253.337823,83.142950
253.515253,83.063806
253.660682,83.016238
253.811879,82.992661
254.006612,82.985490
254.121283,82.985613
254.343452,82.990103
254.503580,83.005883
254.638425,83.041603
254.784742,83.105910
254.911945,83.171651
255.207276,83.329226
255.424126,83.450596
255.571755,83.545045
255.659421,83.621858
255.696386,83.690322
255.691908,83.759721
255.655247,83.839339
255.626411,83.888072
255.532150,84.000643
255.420649,84.038805
255.275378,84.002896
255.088776,83.899033
254.698210,83.686496
254.331391,83.567731
253.982148,83.542312
253.644312,83.609816
253.311713,83.769817
253.301783,83.776021
253.194064,83.857827
253.063093,83.976718
252.929264,84.111399
252.812969,84.240575
252.734602,84.342948
252.712918,84.390954
252.754758,84.428134
252.860761,84.481431
252.926190,84.508149
253.155796,84.636232
253.348800,84.820158
253.490279,85.037769
253.565312,85.266909
253.565198,85.456948
253.512746,85.608657
253.417738,85.783038
253.301494,85.948394
253.185335,86.073030
253.121554,86.116486
252.996245,86.150894
252.833432,86.168921
252.796188,86.169699
252.549705,86.122657
252.328701,85.988879
252.144117,85.779388
252.006898,85.505207
251.953284,85.320693
251.914279,85.146074
252.497453,85.146074
252.517199,85.264128
252.591674,85.458538
252.705049,85.580253
252.845673,85.617259
252.858588,85.616104
252.951026,85.585183
252.992040,85.501011
253.000022,85.443091
252.985243,85.249523
252.892504,85.114003
252.732133,85.031310
252.588709,85.001850
252.512947,85.037434
252.497453,85.146074
251.914279,85.146074
251.897548,85.071170
251.786992,85.163333
251.730377,85.226484
251.689557,85.319586
251.657960,85.464924
251.629017,85.684786
251.626432,85.707953
251.562732,86.079513
251.452479,86.393363
251.280557,86.682339
251.050299,86.959464
250.738947,87.234605
250.398700,87.415905
250.024179,87.505342
249.610005,87.504890
249.575218,87.501056
249.422430,87.488821
249.330083,87.505032
249.261443,87.560111
249.229432,87.599157
249.005651,87.835349
248.765340,87.980815
248.494006,88.040421
248.177157,88.019037
248.054660,87.993752
247.870339,87.936549
247.666148,87.843850
247.425911,87.706956
247.133453,87.517168
247.005330,87.429418
246.804264,87.292976
246.615220,87.169622
246.463650,87.075714
246.393837,87.036440
246.227090,86.951469
245.998506,87.172974
245.752759,87.381711
245.522680,87.510113
245.286815,87.569441
245.233998,87.574214
244.976560,87.560235
244.776535,87.475187
244.631749,87.333281
244.531637,87.142294
244.525902,86.988978
245.082796,86.988978
245.133875,87.012340
245.263711,87.015523
245.419586,86.961720
245.545783,86.877116
245.566583,86.831791
245.516952,86.810645
245.421965,86.812432
245.306697,86.835904
245.196223,86.879815
245.169199,86.895843
245.086813,86.955893
245.082796,86.988978
244.525902,86.988978
244.524264,86.945184
244.609810,86.729827
244.641435,86.678307
244.822170,86.466626
245.047606,86.330077
245.332035,86.261559
245.502319,86.250562
245.671619,86.243203
245.793816,86.230231
245.843721,86.214379
245.843868,86.213500
245.807013,86.147631
245.714235,86.052529
245.592972,85.952050
245.470664,85.870048
245.418671,85.843843
245.218151,85.801025
244.954684,85.808428
244.649424,85.864366
244.454046,85.920838
244.173430,85.988204
243.866627,86.021712
243.570841,86.019727
243.323280,85.980616
243.293655,85.971785
243.141124,85.906195
242.962882,85.806699
242.866597,85.743300
242.728458,85.652694
242.616254,85.592187
242.567420,85.576703
242.460722,85.543511
242.313230,85.456800
242.150979,85.335865
242.000000,85.200000
241.891476,85.075715
241.725148,84.783605
241.631214,84.458336
241.605435,84.081922
241.614308,83.899105
241.644716,83.498332
241.666322,83.182803
241.678886,82.939301
241.682167,82.754609
241.675927,82.615510
241.659926,82.508788
241.633925,82.421224
241.597684,82.339603
241.585629,82.315934
241.489934,82.173753
241.356393,82.026598
241.209254,81.896120
241.072767,81.803970
240.976025,81.771644
240.907796,81.812595
240.879295,81.865463
240.800249,82.024790
240.672662,82.196005
240.525437,82.345629
240.387476,82.440185
240.380476,82.443230
240.184640,82.479656
240.003407,82.434042
239.849956,82.323170
239.737465,82.163821
239.679114,81.972779
239.684644,81.845769
240.210583,81.845769
240.220741,81.911703
240.229240,81.919893
240.271876,81.887146
240.309416,81.845769
240.343869,81.787316
240.298471,81.771713
240.290758,81.771644
240.221440,81.808637
240.210583,81.845769
239.684644,81.845769
239.688081,81.766824
239.739353,81.626827
239.825643,81.502234
239.945462,81.377628
240.070442,81.278298
240.172211,81.229528
240.186750,81.228064
240.270866,81.205826
240.275355,81.152090
240.205267,81.086323
240.141602,81.054072
239.962657,81.009019
239.713657,80.986627
239.420661,80.986531
239.109729,81.008371
238.806918,81.051783
238.698088,81.074156
238.326390,81.181921
237.921963,81.338752
237.525020,81.527027
237.175774,81.729124
237.122589,81.764577
237.000441,81.863835
236.861950,82.000255
236.723553,82.154150
236.601688,82.305833
236.512793,82.435616
236.473305,82.523812
236.474184,82.541176
236.460384,82.613620
236.398553,82.717668
236.387844,82.731512
236.296418,82.822742
236.204246,82.843086
236.141268,82.831571
235.997545,82.755342
235.932281,82.625821
235.949808,82.455088
235.979562,82.380901
236.066708,82.229235
236.200450,82.031943
236.360594,81.816251
236.526946,81.609386
236.675594,81.442441
236.811907,81.330003
237.020424,81.194689
237.280578,81.047711
237.571806,80.900277
237.873541,80.763598
238.058945,80.688376
238.318859,80.600177
238.603073,80.529248
238.935552,80.470651
239.340260,80.419448
239.389921,80.414086
239.646317,80.409072
Z" /> 
</g> 
</svg>
