<?xml version="1.0" standalone="no"?>
 <!DOCTYPE svg PUBLIC "-//W3C//DTD SVG 1.1//EN" 
 "http://www.w3.org/Graphics/SVG/1.1/DTD/svg11.dtd"> 
<svg
  xmlns:svg="http://www.w3.org/2000/svg"
  xmlns="http://www.w3.org/2000/svg"
  xmlns:xlink="http://www.w3.org/1999/xlink"
  xmlns:inkscape="http://www.inkscape.org/namespaces/inkscape"
  version="1.1"
  width="297.002200mm" height="210.007200mm" viewBox="0.000000 0.000000 297.002200 210.007200">
<title>SVG Image created as Alpenglow_FUterus_PCB-User_3.svg date 2026-03-21T20:43:34 </title>
  <desc>Image generated by PCBNEW </desc>
<g style="fill:#000000; fill-opacity:1.000000;stroke:#000000; stroke-opacity:1.000000;
stroke-linecap:round; stroke-linejoin:round;"
 transform="translate(0 0) scale(1 1)">
<path style="fill:#000000; fill-opacity:1.000000; stroke:none;fill-rule:evenodd;"
d="M 46.547966,91.587713
46.552986,91.589612
46.593022,91.608390
46.615914,91.636581
46.624607,91.689507
46.622047,91.782489
46.613302,91.903423
46.575335,92.189846
46.507862,92.486372
46.416422,92.777938
46.306553,93.049478
46.183793,93.285928
46.053680,93.472224
46.024440,93.505175
45.968486,93.584704
45.907930,93.700284
45.869756,93.791059
45.738358,94.068154
45.565566,94.315998
45.360240,94.527380
45.131242,94.695093
44.887431,94.811927
44.637669,94.870673
44.535887,94.876295
44.396725,94.867759
44.290901,94.836016
44.205287,94.786197
44.124758,94.728789
44.063649,94.674184
44.009973,94.606964
43.951746,94.511713
43.876980,94.373013
43.862278,94.344986
43.778401,94.195843
43.681984,94.040542
43.598836,93.919607
43.461050,93.734174
43.395035,93.902235
43.276433,94.121327
43.113216,94.303163
42.916494,94.441740
42.697376,94.531056
42.466970,94.565109
42.236387,94.537897
42.224494,94.534664
42.053959,94.456133
41.928910,94.336257
41.851604,94.186900
41.827387,94.038823
42.113815,94.038823
42.144164,94.098075
42.150305,94.107519
42.253084,94.206369
42.391029,94.252360
42.553739,94.243853
42.700281,94.194168
42.812551,94.126951
42.924168,94.037460
42.951360,94.010684
43.022445,93.919646
43.084760,93.812132
43.129135,93.708060
43.146400,93.627350
43.140654,93.599529
43.097777,93.583828
43.006689,93.575822
42.887268,93.575193
42.759388,93.581624
42.642927,93.594795
42.576276,93.608558
42.397979,93.684225
42.246809,93.798039
42.158729,93.908693
42.118216,93.986402
42.113815,94.038823
41.827387,94.038823
41.824296,94.019925
41.849245,93.847195
41.928705,93.680574
42.038146,93.554991
42.206122,93.427321
42.387980,93.341803
42.602203,93.291525
42.792140,93.272958
43.092793,93.255816
43.033649,93.155053
42.967508,93.054701
42.912524,93.012429
42.853060,93.023210
42.782526,93.074343
42.591780,93.194691
42.378024,93.262288
42.155971,93.277042
41.940333,93.238863
41.745825,93.147660
41.660115,93.081260
41.549489,92.939801
41.491053,92.774157
41.489618,92.698979
41.791914,92.698979
41.822377,92.786631
41.901455,92.871467
42.010683,92.936523
42.072468,92.956718
42.160724,92.972839
42.237468,92.970750
42.335831,92.948337
42.373977,92.937488
42.453622,92.903404
42.540346,92.851154
42.612390,92.795791
42.647999,92.752369
42.648864,92.747288
42.620529,92.720579
42.546116,92.674380
42.441516,92.618523
42.437721,92.616622
42.260455,92.545809
42.098353,92.514007
41.961225,92.519965
41.858879,92.562433
41.801124,92.640160
41.791914,92.698979
41.489618,92.698979
41.487767,92.602038
41.542592,92.441154
41.550796,92.427314
41.625458,92.331647
41.718196,92.269130
41.843816,92.233992
42.017122,92.220460
42.083189,92.219750
42.235419,92.223045
42.347299,92.237074
42.446886,92.268053
42.562237,92.322197
42.574838,92.328670
42.697091,92.385907
42.765768,92.401900
42.783277,92.374973
42.752028,92.303450
42.708850,92.235421
42.575005,92.095141
42.399384,92.000120
42.190830,91.949381
41.958188,91.941949
41.710299,91.976849
41.456009,92.053105
41.204160,92.169742
40.963596,92.325783
40.822177,92.443551
40.619749,92.658277
40.485578,92.869030
40.419495,93.076109
40.411918,93.176031
40.432216,93.351698
40.485363,93.539513
40.562288,93.716665
40.653920,93.860346
40.706123,93.915811
40.833122,94.070838
40.929953,94.284963
40.995900,94.555377
41.030247,94.879271
41.033877,95.201936
41.030677,95.367157
41.029425,95.523576
41.030239,95.647293
41.031455,95.689331
41.037798,95.833947
41.227547,95.701027
41.441996,95.581399
41.658984,95.515930
41.868996,95.503416
42.062518,95.542647
42.230035,95.632419
42.362032,95.771523
42.407712,95.850728
42.471005,96.048588
42.469325,96.238789
42.404242,96.413055
42.277321,96.563108
42.271973,96.567656
42.108133,96.663932
41.908122,96.717238
41.688838,96.728004
41.467180,96.696658
41.260046,96.623629
41.119956,96.538404
41.008877,96.453680
40.877656,96.618373
40.664164,96.850656
40.439963,97.020241
40.194638,97.132984
39.917776,97.194742
39.837597,97.203321
39.555122,97.207027
39.321636,97.166698
39.138957,97.084150
39.008900,96.961197
38.933281,96.799655
38.913918,96.601337
38.952627,96.368061
38.963608,96.329988
39.004089,96.166137
39.008999,96.043634
38.976948,95.944403
38.928726,95.875450
38.789454,95.761610
38.605229,95.691922
38.386391,95.670002
38.345561,95.671334
38.231977,95.679605
38.172210,95.693508
38.151522,95.719091
38.152921,95.750384
38.161123,95.817982
38.171578,95.930055
38.182058,96.062668
38.182311,96.066167
38.188584,96.210909
38.179683,96.315942
38.151538,96.409208
38.123170,96.472283
38.016273,96.628551
37.876604,96.725338
37.706234,96.761255
37.691746,96.761457
37.536486,96.731875
37.407495,96.641276
37.301489,96.487343
37.300539,96.485486
37.243215,96.300692
37.247846,96.197208
37.550056,96.197208
37.554646,96.314196
37.594709,96.386572
37.669089,96.439831
37.742243,96.428053
37.821022,96.350075
37.822665,96.347881
37.872401,96.235052
37.889385,96.094132
37.871542,95.958340
37.850339,95.905374
37.808518,95.827230
37.691096,95.944653
37.596643,96.068964
37.550056,96.197208
37.247846,96.197208
37.252021,96.103929
37.326346,95.898892
37.423257,95.743893
37.455577,95.693157
37.444060,95.667391
37.377789,95.649993
37.359217,95.646471
37.232491,95.641592
37.070791,95.661163
36.900994,95.700063
36.749974,95.753167
36.716431,95.769008
36.610625,95.839638
36.499211,95.940089
36.401289,96.050411
36.335958,96.150656
36.324829,96.178050
36.314533,96.263980
36.322499,96.368263
36.323272,96.372510
36.340411,96.429941
36.374676,96.492444
36.432619,96.567419
36.520794,96.662270
36.645756,96.784399
36.814058,96.941208
36.881410,97.002908
37.006323,97.126956
37.084199,97.231318
37.126703,97.331720
37.127543,97.334793
37.145724,97.529866
37.098716,97.723947
37.005304,97.884979
36.934438,98.004138
36.904084,98.136911
36.900798,98.186665
36.859886,98.420728
36.762027,98.659148
36.616838,98.889860
36.433932,99.100800
36.222924,99.279904
35.993429,99.415108
35.887476,99.458139
35.702911,99.502526
35.493574,99.521514
35.282817,99.515510
35.093990,99.484920
34.972722,99.442188
34.866791,99.391479
34.806295,99.373407
34.775460,99.389739
34.758510,99.442242
34.753488,99.466739
34.694152,99.601970
34.577534,99.733155
34.414831,99.852981
34.217240,99.954135
33.995956,100.029305
33.843802,100.060909
33.599471,100.098727
33.599136,100.272599
33.574272,100.456651
33.507562,100.638652
33.409809,100.794959
33.320366,100.882793
33.129501,100.988287
32.924689,101.039409
32.717907,101.039143
32.521129,100.990473
32.346333,100.896385
32.205492,100.759860
32.110583,100.583885
32.109612,100.581081
32.064850,100.450877
31.992186,100.593310
31.926244,100.749316
31.870125,100.930392
31.831438,101.107865
31.817768,101.250636
31.842087,101.397381
31.903876,101.554141
31.988816,101.687958
32.024320,101.726063
32.102314,101.798726
32.186313,101.714726
32.312961,101.627785
32.454164,101.606997
32.612043,101.652190
32.658702,101.676183
32.754508,101.726552
32.816976,101.744884
32.871369,101.734723
32.918103,101.712589
32.976488,101.671734
33.073180,101.592251
33.197469,101.483441
33.338644,101.354603
33.437168,101.261877
33.670657,101.045589
33.866882,100.879031
34.032033,100.758904
34.172296,100.681910
34.293860,100.644751
34.402913,100.644130
34.505642,100.676747
34.520853,100.684283
34.619875,100.754135
34.675007,100.847488
34.695546,100.982516
34.696367,101.027317
34.665659,101.213079
34.577559,101.415220
34.438110,101.624108
34.253352,101.830113
34.113641,101.956392
33.874496,102.113882
33.611986,102.211282
33.336811,102.246295
33.059673,102.216620
32.988843,102.198092
32.851305,102.165893
32.715763,102.156055
32.549153,102.166349
32.536853,102.167620
32.279768,102.194649
32.269387,102.395136
32.267599,102.486676
32.276012,102.568056
32.299433,102.655745
32.342669,102.766209
32.410524,102.915914
32.439126,102.976709
32.546597,103.224563
32.612771,103.431373
32.639585,103.609297
32.628974,103.770497
32.588264,103.913335
32.473230,104.128420
32.312888,104.292469
32.109273,104.404030
31.864416,104.461653
31.813031,104.466411
31.566365,104.455811
31.336052,104.391990
31.135018,104.280869
30.976186,104.128369
30.930303,104.061986
30.899704,104.014510
30.882980,104.006109
30.875940,104.045755
30.874391,104.142423
30.874370,104.181729
30.867657,104.320486
30.841854,104.423590
30.788464,104.523123
30.780873,104.534731
30.647018,104.681181
30.460923,104.803281
30.246221,104.888701
30.083782,104.960660
29.946057,105.067372
29.847960,105.194378
29.805651,105.315794
29.799706,105.405977
29.819846,105.469082
29.878344,105.534024
29.910491,105.562838
29.996403,105.622648
30.108228,105.680388
30.226150,105.728289
30.330349,105.758582
30.401009,105.763499
30.411892,105.759391
30.432420,105.718452
30.441623,105.681607
30.754397,105.681607
30.759804,105.721193
30.788355,105.723500
30.856237,105.691519
30.952456,105.629509
31.027627,105.564202
31.080798,105.481234
31.097303,105.399282
31.079919,105.335539
31.031424,105.307200
30.987328,105.314805
30.935572,105.357988
30.871607,105.440670
30.810335,105.539380
30.766660,105.630651
30.754397,105.681607
30.441623,105.681607
30.453433,105.634326
30.460511,105.593044
30.507016,105.435690
30.591819,105.275637
30.699298,105.137809
30.796536,105.056917
30.951689,104.995657
31.100156,104.996129
31.230696,105.051663
31.332069,105.155585
31.393035,105.301226
31.405679,105.418468
31.373014,105.595701
31.281301,105.758570
31.139970,105.896077
30.958445,105.997222
30.888810,106.021504
30.809429,106.052963
30.779602,106.094008
30.797764,106.158735
30.862177,106.260996
30.909600,106.314374
30.972917,106.344909
31.074287,106.361375
31.126637,106.365714
31.303748,106.391476
31.421939,106.441720
31.487949,106.521195
31.508513,106.634649
31.508513,106.634944
31.499651,106.732104
31.461441,106.793792
31.397110,106.839694
31.244727,106.899261
31.091856,106.890962
30.940036,106.818005
30.807606,106.728135
30.630148,106.918786
30.539003,107.029793
30.443721,107.167281
30.353537,107.315122
30.277690,107.457188
30.225415,107.577351
30.205949,107.659459
30.229121,107.712072
30.289388,107.791798
30.360025,107.867486
30.505154,108.041764
30.587539,108.224205
30.612698,108.429305
30.608136,108.519173
30.557391,108.750386
30.454689,108.941122
30.306316,109.087061
30.118560,109.183886
29.897708,109.227277
29.650046,109.212916
29.609406,109.205190
29.388997,109.126738
29.258575,109.044862
29.077097,108.937760
28.901913,108.897757
28.783055,108.910164
28.699342,108.964083
28.630332,109.071502
28.582461,109.217866
28.562169,109.388620
28.561893,109.410168
28.568488,109.528714
28.585998,109.666989
28.610653,109.805131
28.638687,109.923279
28.666331,110.001573
28.677227,110.018109
28.718145,110.018945
28.806080,110.000953
28.923326,109.967901
28.943950,109.961362
29.225174,109.889389
29.479708,109.861563
29.696893,109.878839
29.742419,109.889842
29.887248,109.957754
30.017623,110.067119
30.114639,110.198810
30.155634,110.307920
30.212134,110.426942
30.286114,110.490600
30.363236,110.558504
30.449134,110.661492
30.505138,110.744924
30.631608,111.008551
30.705512,111.281159
30.726672,111.551546
30.694914,111.808511
30.610061,112.040853
30.527554,112.171792
30.425093,112.281383
30.295527,112.370703
30.127452,112.445221
29.909463,112.510405
29.740067,112.549417
29.569580,112.588109
29.412642,112.628358
29.287864,112.665115
29.219023,112.690762
29.120012,112.758729
29.024055,112.858422
28.947416,112.968934
28.906355,113.069359
28.903385,113.096529
28.910459,113.143606
28.938750,113.178074
28.998862,113.203640
29.101397,113.224011
29.256959,113.242894
29.347975,113.251980
29.504518,113.269831
29.647725,113.291041
29.755049,113.312081
29.785104,113.320378
29.867587,113.336875
29.997523,113.350921
30.153810,113.360564
30.249701,113.363394
30.416832,113.368028
30.537615,113.378337
30.634249,113.398842
30.728932,113.434064
30.829659,113.481507
31.027695,113.603504
31.206829,113.759527
31.351664,113.933610
31.446801,114.109790
31.453459,114.128283
31.494969,114.279840
31.508737,114.422972
31.491943,114.569690
31.441767,114.732007
31.355388,114.921936
31.229987,115.151488
31.201837,115.200024
31.137043,115.313259
31.088372,115.402679
31.064161,115.452831
31.062899,115.457647
31.092537,115.472016
31.157164,115.477503
31.302396,115.509165
31.425413,115.594329
31.515322,115.718880
31.561232,115.868705
31.558841,115.997992
31.504544,116.141650
31.402126,116.271245
31.267858,116.375312
31.118010,116.442390
30.968852,116.461016
30.913688,116.452500
30.803005,116.393894
30.701512,116.285673
30.625179,116.146443
30.608151,116.096582
30.584288,116.014162
30.900505,116.014162
30.933376,116.100223
30.999541,116.137946
31.091107,116.119152
31.117602,116.104314
31.186770,116.038283
31.230019,115.970088
31.249552,115.876751
31.208880,115.815788
31.108540,115.787785
31.061425,115.785877
30.974012,115.792153
30.930925,115.821616
30.908817,115.887940
30.900505,116.014162
30.584288,116.014162
30.565422,115.948999
30.274937,116.179731
30.140976,116.289035
30.051693,116.371303
29.995977,116.439341
29.962714,116.505956
29.947107,116.557542
29.911233,116.672716
29.861704,116.769665
29.787560,116.861892
29.677841,116.962900
29.521584,117.086192
29.512257,117.093257
29.298892,117.263981
29.137614,117.417500
29.018763,117.566396
28.932679,117.723250
28.869701,117.900642
28.857326,117.946222
28.830449,118.096400
28.843031,118.194226
28.896623,118.244471
28.957373,118.253893
29.054596,118.238024
29.166261,118.187502
29.298400,118.097952
29.457043,117.965001
29.648223,117.784275
29.762224,117.670243
29.917651,117.513334
30.035131,117.398221
30.124395,117.317442
30.195175,117.263534
30.257205,117.229033
30.320216,117.206477
30.389191,117.189462
30.509474,117.166428
30.596468,117.164800
30.682641,117.186586
30.747221,117.211637
30.868317,117.276098
30.945949,117.360003
30.971389,117.405790
31.009821,117.502111
31.019896,117.589700
30.996850,117.678725
30.935921,117.779352
30.832347,117.901750
30.681366,118.056086
30.654409,118.082548
30.510851,118.226088
30.410315,118.335501
30.344201,118.421775
30.303913,118.495898
30.283945,118.555988
30.265560,118.629910
30.262164,118.669609
30.282506,118.673389
30.335334,118.639553
30.429400,118.566403
30.493678,118.515312
30.639311,118.430382
30.785419,118.398057
30.919406,118.415678
31.028676,118.480581
31.100634,118.590106
31.116354,118.646895
31.126219,118.768193
31.104822,118.888993
31.046994,119.024830
30.947565,119.191236
30.922671,119.228896
30.846844,119.347808
30.788762,119.449443
30.757426,119.517595
30.754397,119.531813
30.726800,119.607861
30.659609,119.685197
30.576222,119.738058
30.563050,119.742492
30.478059,119.734222
30.434507,119.699924
30.393690,119.636781
30.383970,119.563082
30.408280,119.468813
30.469552,119.343961
30.570720,119.178511
30.600693,119.132515
30.718972,118.945394
30.793648,118.810478
30.824717,118.727895
30.812177,118.697771
30.756025,118.720233
30.656258,118.795411
30.607489,118.837316
30.432317,118.969996
30.279867,119.041942
30.153150,119.053950
30.055175,119.006811
29.988952,118.901319
29.957492,118.738268
29.955257,118.665377
29.971008,118.496069
30.021595,118.341051
30.113966,118.188100
30.255072,118.024993
30.396596,117.889069
30.512923,117.780448
30.609868,117.684805
30.676178,117.613569
30.699969,117.580959
30.687883,117.534576
30.628479,117.498153
30.542975,117.480001
30.459273,117.486645
30.407777,117.517264
30.318491,117.588683
30.201194,117.692337
30.065667,117.819658
29.956052,117.927420
29.754516,118.124930
29.587810,118.276295
29.446450,118.387680
29.320954,118.465251
29.201840,118.515173
29.079624,118.543613
28.993031,118.553579
28.871228,118.560691
28.792429,118.553372
28.731546,118.525159
28.663492,118.469593
28.662097,118.468348
28.599254,118.405910
28.562727,118.344239
28.543426,118.259952
28.532617,118.135321
28.529310,117.991792
28.544390,117.871440
28.583561,117.740336
28.611447,117.666551
28.715582,117.446507
28.848953,117.253649
29.023751,117.073313
29.252169,116.890837
29.262823,116.883120
29.382144,116.794841
29.475646,116.721550
29.532503,116.672002
29.544368,116.655379
29.506383,116.655804
29.422047,116.671274
29.329536,116.693409
29.077763,116.735920
28.849560,116.728631
28.654370,116.672790
28.519217,116.586099
28.408049,116.443650
28.344043,116.264998
28.332790,116.112406
28.629161,116.112406
28.658054,116.244793
28.739024,116.342821
28.863507,116.404107
29.022938,116.426271
29.208754,116.406930
29.412391,116.343704
29.431741,116.335590
29.522126,116.291106
29.578964,116.252090
29.588945,116.236842
29.560136,116.174786
29.483235,116.093676
29.372531,116.002894
29.242312,115.911822
29.106867,115.829843
28.980483,115.766338
28.877450,115.730690
28.817013,115.729976
28.766668,115.776057
28.711380,115.864528
28.662978,115.971309
28.633291,116.072317
28.629161,116.112406
28.332790,116.112406
28.329341,116.065639
28.366081,115.861072
28.405152,115.760081
28.488976,115.580034
28.361970,115.514901
28.199319,115.399994
28.074260,115.248569
27.997686,115.077005
27.985650,114.989578
28.292872,114.989578
28.341405,115.091864
28.353515,115.107863
28.418977,115.170044
28.510711,115.234693
28.602555,115.285270
28.665660,115.305204
28.691201,115.277932
28.730814,115.209112
28.742785,115.184849
28.792508,115.026867
28.780917,114.894567
28.709335,114.791968
28.592141,114.727439
28.517785,114.708740
28.461744,114.723758
28.394324,114.781477
28.385937,114.789818
28.307276,114.893214
28.292872,114.989578
27.985650,114.989578
27.978632,114.938597
28.009251,114.782499
28.088343,114.629719
28.200275,114.507877
28.237059,114.482018
28.407621,114.410440
28.575996,114.399328
28.734090,114.440847
28.873813,114.527161
28.987072,114.650435
29.065776,114.802834
29.101833,114.976522
29.087151,115.163664
29.053345,115.272435
29.022251,115.358960
29.009120,115.413986
29.010497,115.422377
29.044892,115.442184
29.124604,115.485125
29.234058,115.542838
29.263304,115.558105
29.537651,115.728252
29.749087,115.920535
29.811901,115.997709
29.880308,116.089569
30.147233,115.873800
30.278041,115.772980
30.405875,115.682831
30.511089,115.616874
30.549232,115.597121
30.638698,115.543016
30.698157,115.481818
30.706695,115.463945
30.731180,115.407670
30.782148,115.305378
30.852519,115.170834
30.935218,115.017800
30.948919,114.992883
31.059178,114.785422
31.134352,114.622958
31.177816,114.493735
31.192944,114.385995
31.183108,114.287983
31.167435,114.231384
31.102628,114.113236
30.991791,113.986240
30.852895,113.866122
30.703910,113.768608
30.574846,113.712809
30.463318,113.682960
30.371607,113.664080
30.338360,113.660640
30.302601,113.666197
30.294858,113.694442
30.313793,113.762737
30.327443,113.802062
30.370041,113.994357
30.370675,114.191794
30.330051,114.367828
30.311265,114.409891
30.207304,114.560231
30.065963,114.691754
29.903584,114.794625
29.736510,114.859006
29.581081,114.875061
29.546188,114.870416
29.428250,114.816589
29.344956,114.713550
29.296680,114.571463
29.285518,114.423326
29.589280,114.423326
29.594605,114.508221
29.619594,114.544527
29.672010,114.551869
29.751576,114.530268
29.843096,114.476852
29.861770,114.462090
29.990023,114.319439
30.058616,114.161503
30.068837,114.071976
30.056069,113.981765
30.024359,113.885079
29.983598,113.805030
29.943675,113.764731
29.936820,113.763474
29.879087,113.793722
29.810383,113.873896
29.739058,113.988149
29.673460,114.120628
29.621937,114.255483
29.592837,114.376865
29.589280,114.423326
29.285518,114.423326
29.283798,114.400493
29.306685,114.210805
29.365716,114.012563
29.461265,113.815932
29.504750,113.747386
29.556066,113.667966
29.585889,113.614453
29.588945,113.605091
29.556998,113.598485
29.470399,113.594556
29.343016,113.593656
29.214107,113.595514
29.015746,113.596026
28.876864,113.585460
28.788966,113.561648
28.743557,113.522424
28.731995,113.472537
28.712225,113.417551
28.664560,113.344216
28.663439,113.342785
28.603654,113.214373
28.596295,113.059619
28.637713,112.891619
28.724258,112.723471
28.852280,112.568271
28.888668,112.534495
28.974002,112.467767
29.070223,112.412455
29.189614,112.364093
29.344459,112.318215
29.547042,112.270352
29.708239,112.236449
29.876133,112.199603
29.995103,112.164744
30.084040,112.123833
30.161837,112.068828
30.217579,112.019678
30.347126,111.856038
30.416162,111.662795
30.424484,111.442946
30.371889,111.199490
30.287185,110.992544
30.197989,110.809603
30.084495,111.044237
29.973980,111.233859
29.852357,111.362103
29.711358,111.436087
29.603261,111.458696
29.501456,111.462980
29.433029,111.439287
29.368397,111.380351
29.301348,111.261127
29.284919,111.115102
29.288477,111.095202
29.588945,111.095202
29.592150,111.145010
29.613259,111.144637
29.661148,111.103672
29.723607,111.030376
29.787639,110.930810
29.800652,110.906509
29.838591,110.823088
29.854709,110.768651
29.853228,110.759922
29.821421,110.770239
29.766919,110.821858
29.703113,110.897791
29.643395,110.981051
29.601154,111.054647
29.588945,111.095202
29.288477,111.095202
29.313579,110.954804
29.381795,110.792761
29.484034,110.641502
29.614766,110.513554
29.768457,110.421445
29.796835,110.410117
29.870871,110.382729
29.788763,110.287273
29.681279,110.205105
29.538046,110.170459
29.354289,110.183042
29.125232,110.242559
29.115634,110.245721
28.878855,110.311247
28.692442,110.333604
28.553696,110.313032
28.520849,110.298465
28.447901,110.225503
28.381215,110.092454
28.324166,109.907725
28.284735,109.709871
28.257288,109.414032
28.273472,109.157776
28.331703,108.944864
28.430394,108.779064
28.567960,108.664138
28.742814,108.603851
28.751234,108.602528
28.835529,108.585394
28.879223,108.556306
28.886252,108.501088
28.860553,108.405566
28.829810,108.319610
28.808562,108.213056
28.801674,108.065646
28.803272,108.029193
29.109578,108.029193
29.118081,108.125423
29.140620,108.244670
29.172041,108.368715
29.207193,108.479342
29.240924,108.558333
29.267469,108.587496
29.306263,108.573336
29.377385,108.539123
29.380151,108.537696
29.484216,108.451013
29.535327,108.334642
29.534649,108.200981
29.483345,108.062428
29.382580,107.931382
29.317988,107.875547
29.222490,107.810778
29.161110,107.794731
29.126661,107.832702
29.111956,107.929989
29.109578,108.029193
28.803272,108.029193
28.808785,107.903483
28.829539,107.752670
28.838125,107.714517
28.857943,107.614646
28.849950,107.545972
28.808669,107.474878
28.796315,107.457924
28.745638,107.367078
28.716570,107.251005
28.704387,107.120643
28.703618,107.094270
29.005837,107.094270
29.009969,107.205664
29.047353,107.278076
29.092131,107.311811
29.131762,107.304781
29.178957,107.249401
29.227581,107.170517
29.296167,107.019912
29.310213,106.898235
29.269262,106.810776
29.259446,106.801838
29.218228,106.779882
29.175157,106.796558
29.111446,106.859770
29.105195,106.866738
29.038669,106.973542
29.005837,107.094270
28.703618,107.094270
28.700577,106.989905
28.710874,106.899836
28.741637,106.822989
28.792001,106.742565
28.922697,106.589411
29.064414,106.494462
29.209681,106.459953
29.351028,106.488118
29.444757,106.547261
29.558470,106.684606
29.614916,106.851337
29.613602,107.038418
29.554040,107.236814
29.488853,107.359598
29.429613,107.460342
29.406027,107.519977
29.413941,107.553208
29.430612,107.565782
29.609747,107.698423
29.736873,107.869763
29.817046,108.087162
29.829808,108.146716
29.843631,108.356535
29.797405,108.537196
29.688751,108.696608
29.653897,108.731845
29.520304,108.859055
29.662917,108.897456
29.852295,108.918322
30.020828,108.879826
30.158916,108.789146
30.256956,108.653459
30.305346,108.479942
30.308783,108.414678
30.302671,108.332144
30.276985,108.262895
30.220699,108.186577
30.136702,108.097000
30.004532,107.936815
29.929933,107.778370
29.911853,107.610648
29.949240,107.422627
30.041042,107.203289
30.049740,107.185962
30.121957,107.060287
30.217723,106.916192
30.323626,106.771713
30.426256,106.644884
30.512200,106.553739
30.533539,106.535407
30.588035,106.484626
30.594869,106.436955
30.567385,106.372091
30.519969,106.269269
30.485024,106.184467
30.455690,106.132363
30.403732,106.096927
30.311367,106.068779
30.235250,106.052680
30.007831,105.991854
29.828404,105.904635
29.678618,105.781913
29.668173,105.771134
29.547138,105.598977
29.488709,105.407092
29.494933,105.206128
29.534613,105.075691
29.624499,104.930365
29.760539,104.792547
29.921283,104.681121
30.045097,104.626250
30.279236,104.532708
30.446597,104.425526
30.547673,104.304280
30.582957,104.168545
30.583007,104.162939
30.567595,104.098555
30.526414,103.992887
30.479475,103.891410
30.822953,103.891410
30.835495,103.919624
30.845805,103.914262
30.849907,103.873582
30.845805,103.868558
30.825427,103.873263
30.822953,103.891410
30.479475,103.891410
30.467049,103.864546
30.438492,103.808308
30.368757,103.670390
30.325910,103.566557
30.303350,103.471071
30.294478,103.358194
30.293895,103.316916
30.591926,103.316916
30.655498,103.536988
30.694047,103.620280
30.805086,103.839993
30.824112,103.677646
30.850734,103.556735
30.894626,103.448478
30.911922,103.420561
30.980932,103.352835
31.086075,103.278414
31.167484,103.232594
31.298804,103.164350
31.379609,103.111699
31.421973,103.062265
31.437973,103.003675
31.439957,102.953388
31.409440,102.828041
31.321491,102.734719
31.181514,102.678034
31.102748,102.665683
31.000307,102.660319
30.927946,102.675679
30.856455,102.722271
30.793807,102.776816
30.661116,102.936529
30.593811,103.116663
30.591926,103.316916
30.293895,103.316916
30.292810,103.240128
30.294721,103.089311
30.305502,102.982323
30.330558,102.894525
30.375289,102.801276
30.398035,102.760236
30.534739,102.569050
30.696095,102.440060
30.887286,102.369729
30.990533,102.355812
31.225403,102.365207
31.422962,102.427030
31.578204,102.537090
31.686121,102.691190
31.741707,102.885140
31.748331,102.990511
31.726057,103.163740
31.654830,103.298973
31.527580,103.406246
31.414578,103.464380
31.268795,103.537326
31.180093,103.606949
31.138294,103.683195
31.131455,103.741080
31.160219,103.834402
31.236061,103.937914
31.343306,104.034207
31.455678,104.101203
31.651174,104.158444
31.840542,104.156838
32.012967,104.102058
32.157634,103.999778
32.263725,103.855669
32.320426,103.675405
32.323984,103.645791
32.328032,103.567120
32.320257,103.494064
32.295766,103.411043
32.249664,103.302475
32.177057,103.152780
32.155792,103.110292
32.077799,102.953163
32.025459,102.837548
31.993435,102.743808
31.976386,102.652306
31.968973,102.543407
31.966100,102.412655
31.960773,102.082213
31.805079,101.938700
31.804157,101.937564
33.178483,101.937564
33.314315,101.937564
33.432380,101.925777
33.567126,101.896183
33.612920,101.882101
33.748542,101.815642
33.894899,101.710707
34.040566,101.579704
34.174119,101.435040
34.284132,101.289124
34.359181,101.154364
34.387842,101.043168
34.387865,101.040459
34.379998,100.970866
34.362157,100.943677
34.295262,100.967877
34.190597,101.035282
34.057213,101.139022
33.904164,101.272228
33.797754,101.372004
33.663413,101.500076
33.527285,101.627406
33.408250,101.736449
33.345921,101.791882
33.178483,101.937564
31.804157,101.937564
31.660052,101.760069
31.566365,101.544479
31.523794,101.300151
31.532116,101.035305
31.591108,100.758162
31.700546,100.476941
31.735553,100.415714
32.398046,100.415714
32.420275,100.519201
32.476884,100.592687
32.621010,100.690049
32.779483,100.734164
32.935766,100.723523
33.073325,100.656619
33.083902,100.648055
33.213964,100.502705
33.281383,100.340923
33.290444,100.251074
33.279796,100.142586
33.238561,100.081728
33.150879,100.051002
33.102440,100.043632
32.925606,100.040651
32.761799,100.073101
32.619080,100.133906
32.505508,100.215992
32.429144,100.312286
32.398046,100.415714
31.735553,100.415714
31.852014,100.212026
31.989796,100.024606
32.142005,99.848611
32.295782,99.697010
32.438271,99.582772
32.527750,99.530433
32.725303,99.476334
32.934059,99.485170
33.143440,99.554873
33.342867,99.683373
33.352999,99.691820
33.418993,99.742867
33.478503,99.769264
33.555159,99.776171
33.672593,99.768746
33.695779,99.766661
33.889416,99.731430
34.079108,99.666050
34.247326,99.579060
34.376540,99.478999
34.433501,99.407304
34.468923,99.328276
34.472851,99.254029
34.440070,99.174008
34.365363,99.077655
34.243512,98.954415
34.180457,98.895276
34.060317,98.779321
33.981020,98.687658
33.929573,98.602138
33.892978,98.504614
33.887473,98.486133
33.855667,98.263671
33.856710,98.252601
34.155228,98.252601
34.191382,98.423187
34.292752,98.581131
34.432167,98.710402
34.544287,98.791321
34.615359,98.824794
34.652300,98.812356
34.662089,98.761413
34.675250,98.707588
34.710393,98.609089
34.761009,98.483599
34.784383,98.429225
34.844129,98.276963
34.893171,98.123092
34.922793,97.995737
34.926089,97.971842
34.934034,97.862503
34.921881,97.791865
34.880904,97.731022
34.840710,97.689048
34.718598,97.605172
34.591424,97.586850
34.466005,97.632118
34.349160,97.739013
34.274651,97.852142
34.183311,98.064033
34.155228,98.252601
33.856710,98.252601
33.878266,98.023839
33.951206,97.785070
34.070429,97.565797
34.098830,97.526741
34.236157,97.397919
34.406737,97.314881
34.593659,97.280206
34.780010,97.296475
34.948878,97.366265
34.985294,97.391546
35.106938,97.505624
35.182139,97.634830
35.218654,97.797023
35.225347,97.944176
35.221046,98.064664
35.205369,98.173880
35.173288,98.292209
35.119777,98.440034
35.076065,98.549469
35.002302,98.741200
34.960482,98.883026
34.950723,98.985761
34.973138,99.060219
35.027844,99.117215
35.082491,99.150948
35.217386,99.195214
35.390356,99.212455
35.576670,99.203135
35.751601,99.167718
35.834988,99.136834
36.001810,99.037078
36.172290,98.894802
36.331526,98.726465
36.464619,98.548521
36.556665,98.377428
36.578255,98.315991
36.606252,98.218400
36.334138,98.218400
36.196820,98.216968
36.108526,98.208757
36.049728,98.187893
36.000902,98.148506
35.961922,98.106456
35.879341,97.970003
35.864674,97.877111
36.174999,97.877111
36.193173,97.904185
36.247107,97.922321
36.335114,97.925292
36.424640,97.914076
36.475246,97.895696
36.484722,97.864188
36.446644,97.826367
36.380094,97.792042
36.304153,97.771017
36.237900,97.773100
36.237164,97.773330
36.179977,97.816417
36.174999,97.877111
35.864674,97.877111
35.856453,97.825048
35.889175,97.686451
35.973428,97.569073
36.105129,97.487774
36.134576,97.477813
36.318682,97.455287
36.500000,97.500000
36.642899,97.582899
36.780791,97.682788
36.823208,97.580385
36.843518,97.509122
36.837540,97.440943
36.799195,97.366629
36.722409,97.276958
36.601104,97.162709
36.477180,97.055282
36.288570,96.881392
36.154454,96.723402
36.066756,96.569197
36.017401,96.406664
36.008582,96.352385
36.014725,96.184801
36.068488,96.001256
36.161888,95.825893
36.199738,95.774320
36.369308,95.612538
36.585863,95.484266
36.834662,95.393183
37.100964,95.342969
37.370031,95.337303
37.627120,95.379863
37.695294,95.401043
37.794146,95.427767
37.884843,95.428328
38.003148,95.402925
38.003796,95.402753
38.209736,95.367111
38.435006,95.359224
38.650072,95.378696
38.793846,95.413335
38.957825,95.496521
39.119125,95.628060
39.122834,95.631751
39.244847,95.784165
39.309388,95.946799
39.319792,96.133331
39.289732,96.315971
39.263175,96.450679
39.245432,96.582942
39.241657,96.639332
39.247474,96.734037
39.282962,96.793248
39.352835,96.841471
39.503819,96.896179
39.690958,96.912600
39.893989,96.891391
40.092650,96.833214
40.132478,96.816105
40.285577,96.736604
40.412759,96.644957
40.532776,96.525021
40.664385,96.360652
40.669457,96.353862
40.742164,96.253713
40.780276,96.184876
40.781081,96.180000
41.222466,96.180000
41.235455,96.219696
41.246673,96.234304
41.360494,96.324301
41.515824,96.384601
41.690764,96.411574
41.863414,96.401586
41.997214,96.358765
42.101685,96.276778
42.151886,96.173262
42.152484,96.061703
42.108148,95.955589
42.023545,95.868406
41.903345,95.813642
41.804439,95.801801
41.676146,95.826863
41.528963,95.894014
41.386056,95.991200
41.313744,96.057110
41.246187,96.132077
41.222466,96.180000
40.781081,96.180000
40.790359,96.123839
40.778982,96.047092
40.768317,95.999897
40.754741,95.906560
40.743157,95.761215
40.734466,95.580404
40.729572,95.380665
40.728828,95.276446
40.727382,95.082542
40.723695,94.907897
40.718237,94.766213
40.711481,94.671192
40.707019,94.642348
40.691398,94.597405
40.671951,94.597823
40.637125,94.649761
40.612812,94.692552
40.490057,94.843350
40.317247,94.955387
40.104216,95.023268
39.980681,95.039335
39.771694,95.040273
39.599210,95.004878
39.437902,94.926423
39.361813,94.874989
39.211561,94.729135
39.119744,94.549902
39.089445,94.363873
39.382536,94.363873
39.432593,94.504273
39.489104,94.580983
39.610153,94.670456
39.768454,94.723441
39.941144,94.736408
40.105361,94.705828
40.156842,94.684065
40.287776,94.595805
40.360629,94.484353
40.385518,94.333483
40.385754,94.317024
40.379420,94.205054
40.362544,94.114165
40.352961,94.089253
40.281473,94.021839
40.161963,93.976363
40.011890,93.954466
39.848713,93.957788
39.689894,93.987972
39.605401,94.018999
39.471204,94.110292
39.396161,94.228898
39.382536,94.363873
39.089445,94.363873
39.084482,94.333399
39.083952,94.300004
39.113208,94.094225
39.199346,93.924648
39.339921,93.793124
39.532486,93.701502
39.774596,93.651630
39.953469,93.642478
40.076834,93.641202
40.145119,93.634339
40.171798,93.616961
40.170344,93.584136
40.164774,93.565161
40.151262,93.495369
40.136988,93.379351
40.124579,93.239352
40.122160,93.204495
40.114714,93.059104
40.118350,92.956001
40.137658,92.869228
40.177230,92.772825
40.210793,92.703248
40.337875,92.501669
40.516510,92.297678
40.731736,92.105456
40.968588,91.939182
41.089215,91.870847
41.384601,91.743753
41.686543,91.662823
41.982505,91.629340
42.259951,91.644591
42.506342,91.709859
42.536474,91.722542
42.758118,91.843499
42.917593,91.985855
43.019700,92.156342
43.069239,92.361690
43.075790,92.478841
43.080629,92.609408
43.098025,92.697479
43.135615,92.768938
43.176922,92.821621
43.243019,92.913068
43.312802,93.029852
43.375535,93.151264
43.420479,93.256597
43.436923,93.323085
43.462936,93.364727
43.529181,93.427029
43.582940,93.468552
43.689245,93.552987
43.783199,93.648420
43.874829,93.767887
43.974165,93.924424
44.087860,94.124913
44.167953,94.264798
44.243864,94.386607
44.305424,94.474576
44.334799,94.507806
44.446189,94.560386
44.592235,94.564817
44.761439,94.523648
44.942306,94.439423
45.090851,94.340328
45.162355,94.275860
45.249049,94.184093
45.338242,94.080395
45.417244,93.980133
45.473365,93.898675
45.493938,93.852177
45.463722,93.840623
45.388131,93.839731
45.356068,93.842152
45.144092,93.838754
44.969250,93.782331
44.861287,93.707555
44.746830,93.569734
44.673045,93.403220
44.643954,93.231766
44.950267,93.231766
44.979252,93.349877
45.045687,93.439256
45.158959,93.517039
45.290992,93.537242
45.450425,93.500459
45.519647,93.471820
45.610739,93.424003
45.653580,93.376793
45.665218,93.309913
45.665328,93.298546
45.634015,93.179434
45.551863,93.075222
45.436556,92.998639
45.305779,92.962417
45.208145,92.969405
45.068736,93.029896
44.981436,93.121228
44.950267,93.231766
44.643954,93.231766
44.642988,93.226072
44.659716,93.056347
44.726285,92.912103
44.726583,92.911698
44.856278,92.789719
45.028021,92.704258
45.222538,92.661184
45.420552,92.666366
45.486173,92.680412
45.609949,92.731676
45.732149,92.811289
45.831794,92.902957
45.887905,92.990388
45.888805,92.993116
45.912488,93.044006
45.940581,93.049114
45.977309,93.003429
46.026896,92.901940
46.085661,92.759628
46.179824,92.504254
46.245002,92.279002
46.288359,92.055744
46.310477,91.876558
46.338342,91.714158
46.384951,91.614559
46.453695,91.573749
Z" /> 
</g> 
</svg>
